<svg xmlns="http://www.w3.org/2000/svg" width="16" height="16" viewBox="0 0 16 16"><path d="M1.321 7.839V5.607c0-.357.321-.661.679-.661h3.5V3.375c0-.357.304-.661.661-.661H9.84c.357 0 .661.304.661.661v1.571h3.518c.357 0 .661.304.661.661v2.232H9.412V6.768H6.608v1.071H1.322zm8.072-2.893v-.643a.649.649 0 0 0-.661-.661H7.286a.66.66 0 0 0-.661.661v.643h2.768zm-.536 2.393v2.089H7.161V7.339h1.696zm-2.25 1.268v1.375h2.804V8.607h5.268v4c0 .357-.304.679-.661.679H2a.703.703 0 0 1-.679-.679v-4h5.286z"/></svg>