<svg xmlns="http://www.w3.org/2000/svg" width="16" height="16" viewBox="0 0 16 16"><path d="M13.661 10.482l.089.089c.161.179.25.429.25.696 0 .518-.339.929-.821 1.036a27.502 27.502 0 0 1-3.214.429c-.643.036-1.286.071-1.964.071-.643 0-1.304-.036-1.946-.071a25.572 25.572 0 0 1-3.125-.411c-.054-.018-.107-.018-.161-.036a1.077 1.077 0 0 1-.768-1.018c0-.268.107-.518.286-.714.018-.018.036-.054.071-.071l.071-.071c.018-.018.036-.018.036-.036.375-.339.786-.643.857-1.554.357-4.161.714-5.821 3.393-6.75.411-.143.554-.357.643-.536.018-.018.036-.054.054-.089a.67.67 0 0 1 .339-.286c.089-.036.179-.036.25-.036a.69.69 0 0 1 .268.036.626.626 0 0 1 .339.304l.054.071c.089.179.232.393.643.536 2.679.929 3.036 2.589 3.393 6.75.071.911.464 1.214.857 1.554 0 .018.018.018.036.036zm-4.232 3.089h.054c.125 0 .214.107.214.232 0 .036-.018.071-.018.107l-.036.036a1.97 1.97 0 0 1-1.107.857c-.179.036-.357.071-.536.071s-.357-.036-.536-.071a1.97 1.97 0 0 1-1.107-.857s-.018-.018-.018-.036c-.018-.036-.036-.071-.036-.107 0-.125.107-.232.232-.232h.036c.464.036.946.036 1.429.036h.018c.464 0 .946 0 1.411-.036z"/></svg>