<svg xmlns="http://www.w3.org/2000/svg" width="16" height="16" viewBox="0 0 16 16"><path d="M16 11.4v1.2a.4.4 0 0 1-.4.4H13v2.6a.4.4 0 0 1-.4.4h-1.2a.4.4 0 0 1-.4-.4V13H8.4a.4.4 0 0 1-.4-.4v-1.2a.4.4 0 0 1 .4-.4H11V8.4a.4.4 0 0 1 .4-.4h1.2a.4.4 0 0 1 .4.4V11h2.6a.4.4 0 0 1 .4.4zM9.672 8.984l-.002-.319s-.615-.228-1.193-.364c.838-.787 1.558-1.892 1.558-3.566C10.034 3.629 9.901 1 7.036 1c-2.948 0-3 2.631-3 3.737 0 1.674.705 2.649 1.559 3.503C.352 9.111 0 13 0 13h6.784s-.141-1.92.21-2.471c.387-.608.947-.841 1.976-.841.531 0 .702-.168.702-.704z"/></svg>
