<svg xmlns="http://www.w3.org/2000/svg" width="16" height="16" viewBox="0 0 16 16"><path d="M10.167 1.185l-.56 1.118C10.602 2.84 11 3.803 11 4.92H5c0-1.117.413-2.095 1.408-2.6L5.76 1.143c-.03-.046 0-.107.047-.138a.124.124 0 0 1 .138.046l.647 1.175a3.33 3.33 0 0 1 1.41-.306c.52 0 .994.124 1.422.307L10 1.093c.015-.046.076-.06.138-.046a.1.1 0 0 1 .03.138zM6.5 3.935c.294 0 .5-.206.5-.5 0-.294-.206-.5-.5-.5-.295 0-.5.206-.5.5 0 .294.205.5.5.5zm3 0c.294 0 .5-.206.5-.5 0-.294-.206-.5-.5-.5-.295 0-.5.206-.5.5 0 .294.205.5.5.5zm-5.5 3v3c0 1.28-2 1.234-2 0v-3c0-1.328 2-1.297 2 0zm10 0v3c0 1.266-2 1.297-2 0v-3c0-1.28 2-1.297 2 0zm-3-1v5c-.002.492-.508.998-1 1v2c0 .74-.39 1-.77 1-.383 0-.76-.3-.76-1v-2h-.94v2c0 .65-.383.998-.765 1-.383.002-.765-.344-.765-.994v-2.005c-.47 0-1-.482-1-.893V5.935h6z"/></svg>