<svg width="16" height="16" viewBox="0 0 16 16" xmlns="http://www.w3.org/2000/svg"><path d="M14 11.5a.5.5 0 0 1-.5.5H12v1.5a.5.5 0 0 1-1 0V12H9.5a.5.5 0 0 1 0-1H11V9.5a.5.5 0 0 1 1 0V11h1.5a.5.5 0 0 1 .5.5zM13.25 2a.75.75 0 0 1 .75.75v3.5a.75.75 0 0 1-.75.75h-3.5A.75.75 0 0 1 9 6.25v-3.5A.75.75 0 0 1 9.75 2h3.5zM10 6h3V3h-3v3zM6.25 2a.75.75 0 0 1 .75.75v3.5a.75.75 0 0 1-.75.75h-3.5A.75.75 0 0 1 2 6.25v-3.5A.75.75 0 0 1 2.75 2h3.5zM3 6h3V3H3v3zm3.25 3a.75.75 0 0 1 .75.75v3.5a.75.75 0 0 1-.75.75h-3.5a.75.75 0 0 1-.75-.75v-3.5A.75.75 0 0 1 2.75 9h3.5zM3 13h3v-3H3v3z"/></svg>