<svg xmlns="http://www.w3.org/2000/svg" width="16" height="16" viewBox="0 0 16 16"><path d="M10.054 3.286c-.482.589-1.286 1.054-2.071.982-.107-.786.286-1.625.75-2.143.5-.589 1.339-1.036 2.054-1.071.089.821-.25 1.643-.732 2.232zm1.75 5.178c-.018-1.768 1.446-2.607 1.518-2.643-.821-1.214-2.107-1.375-2.554-1.393-1.089-.107-2.125.643-2.679.643-.536 0-1.393-.625-2.304-.607-1.179.018-2.268.696-2.875 1.75-1.232 2.125-.321 5.286.875 7.018.589.857 1.286 1.804 2.214 1.768.875-.036 1.214-.571 2.286-.571 1.054 0 1.357.571 2.304.554s1.536-.857 2.125-1.714c.679-.982.946-1.929.964-1.982-.018 0-1.857-.714-1.875-2.821z"/></svg>