<svg xmlns="http://www.w3.org/2000/svg" width="16" height="16" viewBox="0 0 16 16"><path d="M14.937 5.087c-.048-.3-.164-.598-.367-.942l-.029-.037a6.169 6.169 0 0 0-.297-.37l-1.89-1.98a2.402 2.402 0 0 0-1.273-.694 2.336 2.336 0 0 0-1.071-.002c-.489.084-.936.33-1.258.688l-.912.93-6.026 6.31a2.905 2.905 0 0 0-.775 1.58 3.13 3.13 0 0 0 0 .985c.05.34.155.665.313.972.129.22.29.439.468.637.1.1.215.197.331.28.354.254.75.43 1.178.518a2.82 2.82 0 0 0 .915-.001 2.603 2.603 0 0 0 1.504-.8l5.589-5.856c.098-.101.183-.208.254-.321l.012-.024a.599.599 0 0 0 .049-.105c.184-.412.229-.845.132-1.249a.978.978 0 0 0-.113-.306c-.082-.18-.177-.364-.318-.49a1.594 1.594 0 0 0-.473-.358c-.075-.037-.153-.062-.229-.087l-.099-.032a1.652 1.652 0 0 0-1.124.117.422.422 0 0 0-.131.068c-.14.1-.249.18-.32.265l-4.29 4.472-.069.084-.338.355a.459.459 0 0 0-.001.645.425.425 0 0 0 .607 0l.249-.283L9.546 5.43a.872.872 0 0 1 1.198-.01c.321.343.324.922.006 1.239l-5.584 5.829c-.604.645-1.581.791-2.32.348a1.836 1.836 0 0 1-.443-.36 1.852 1.852 0 0 1-.464-.794c-.226-.74-.061-1.483.454-2.037l6.933-7.252c.513-.515 1.258-.657 1.899-.359.191.085.366.204.517.351L13.666 4.4c.161.183.281.352.348.59.283.625.142 1.39-.348 1.904l-6.128 6.393c-.085.133-.07.402.076.547.079.084.187.13.305.13h.001a.417.417 0 0 0 .3-.125l6.029-6.294c.356-.367.592-.826.682-1.327l.034-.155a2.526 2.526 0 0 0-.028-.976"/></svg>