<svg xmlns="http://www.w3.org/2000/svg" width="16" height="16" viewBox="0 0 16 16"><path d="M11.732.839l.304-.732c2.875.946 4.661 4.232 3.714 6.982l-.839-.214c.732-2.536-.643-5.089-3.179-6.036zm.197 5.625c0 .107.107.304.107.411.214.643.214 1.286.214 1.911 0 .643-.107 1.161-.321 1.589-.196.536-.518.857-1.054 1.161-.429.321-.946.429-1.589.321-.536 0-1.054-.214-1.589-.429-.429-.089-.946-.196-1.482-.411l-.107.732 3.5 4.143v.214c0-.107 0-.107-.107-.107H8.34s-.107 0-.107-.107L6.001 13.66l-.107 1.696c0 .107-.107.107-.214.107h-.518c-.107 0-.214-.107-.214-.107l-.107-1.696-2.339 2.339H1.341a.23.23 0 0 1-.214-.214l3.607-4.25-.107-1.589c-.536-.411-.946-.839-1.161-1.375-.75-1.375-.536-2.857-.214-4.232 0-.321 0-.75.107-1.054.107-.643.321-1.179.625-1.5.214-.304.536-.518.75-.625.107-.107.321-.107.429-.214a3.973 3.973 0 0 1 1.589 0c.518.107 1.054.429 1.589.75a5.44 5.44 0 0 1 1.482 1.268l.321.321c-.429 0-.75.196-1.071.411-.321-.411-.732-.732-1.054-1.054s-.75-.536-1.161-.643c-.429-.107-.75-.107-1.071 0-.304.107-.518.321-.732.643s-.321.732-.321 1.161 0 .964.214 1.589c.107.536.321 1.179.625 1.804.321.643.643 1.161 1.071 1.589s.839.857 1.268 1.161c.429.321.839.429 1.268.536s.75 0 1.071-.107c.304-.214.518-.429.625-.732a4 4 0 0 0 .214-1.286c0-.411-.107-.839-.214-1.375.429-.107.75-.214 1.054-.518zm-.84-4.035l.321-.732c2.018.732 3.071 2.857 2.536 4.768l-.732-.214c.411-1.482-.429-3.179-2.125-3.821zm-1.91 2.857v-.304c0-.536.536-1.071 1.268-1.071.75 0 1.286.536 1.286 1.161 0 .643-.536 1.179-1.286 1.179-.304 0-.625-.107-.946-.321l-.643.321-1.161.411H7.59c-.107 0-.214-.089-.321-.196-.107-.214 0-.321.214-.429l1.071-.429z"/></svg>