<svg xmlns="http://www.w3.org/2000/svg" width="16" height="16" viewBox="0 0 16 16"><path d="M2.946 2.893v-.089c0-.929.857-1.696 2.054-1.696.232-.018.429 0 .571.054l.143.036c.054.018.089.018.107.036s.036.018.054.018l6.893 2.554c.196.071.286.214.286.429v8.304c0 .304-.143.446-.446.446a.5.5 0 0 1-.411-.214l-1.268 1.25v.446c0 .143-.071.268-.196.375a.591.591 0 0 1-.268.071l-.161-.036-7.054-2.768c-.196-.071-.286-.214-.286-.429V3.126c-.018-.018-.018-.071-.018-.125v-.107zm7.733 2.946l1.375-1.321-6.518-2.429h-.018l-.143-.054c-.125-.018-.25-.036-.375-.036-.143 0-.286.018-.446.036-.357.089-.696.446-.696.821 0 .018.018.107.071.232l6.714 2.732zm1.446 6.59V4.893l-1.25 1.161a.344.344 0 0 1 .054.179v7.339z"/></svg>