<svg xmlns="http://www.w3.org/2000/svg" width="16" height="16" viewBox="0 0 16 16"><path d="M7.768 2.625C7.768 1.929 8.339 1 9.411 1c.411 0 .732.161.946.411s.304.571.304.893C10.661 3.179 9.982 4 9.018 4zm2.964 9.786l-.071.089C9.215 14.054 7.447 15 6.786 15h-.018c-.214 0-.464-.054-.625-.25-.179-.179-.268-.464-.268-.875 0-.321.054-.982.179-1.464l1.018-4.446c.054-.232.089-.411.089-.5-.179.071-.964.643-1.357.929l-.125.107-.411-1.089.089-.071C6.803 6.002 8.536 4.93 9.339 4.93a.59.59 0 0 1 .536.286c.107.196.143.429.143.732s-.054.964-.143 1.393L8.732 11.93a2.307 2.307 0 0 0-.071.482c0 .071.018.107.018.125.125-.018.929-.571 1.446-1.054l.107-.107z"/></svg>