<svg xmlns="http://www.w3.org/2000/svg" width="16" height="16" viewBox="0 0 16 16"><path d="M11.464 2.804l-1.375 1.804-3.071 2.071L0 1.965h14.018l-2.107 1.429zM4.018 5.982L0 3.178v5.804zm10 .161V3.179l-1.482 1.036zm-1.536-.482l3.321 5.732c.5.893.107 1.607-.911 1.607h-6.75c-1.018 0-1.429-.714-.929-1.607l3.357-5.732c.5-.893 1.393-.893 1.911 0zm-4.446 1.66l-1.018.661-2-1.304L.697 9.982h5.304zm4.143-.16H10.75l.321 3.321h.804zm-.715 4.821a.575.575 0 0 0 .607-.589c0-.304-.304-.607-.607-.607s-.607.304-.607.607c0 .286.304.589.607.589z"/></svg>