<svg xmlns="http://www.w3.org/2000/svg" width="16" height="16" viewBox="0 0 16 16"><path d="M3.643 3.196v-.714c0-.714.429-1.143 1.196-1.143.732 0 1.179.446 1.179 1.143v.714h.804v-.714c0-.696.464-1.143 1.196-1.143s1.179.446 1.179 1.143v.714h.821v-.714c0-.696.446-1.143 1.179-1.143s1.196.446 1.196 1.143v.714h1.339V14.66H2.268V3.196h1.375zm.625-.714v1.893c0 .339.196.5.571.5.411 0 .554-.143.554-.5V2.482c0-.339-.179-.5-.554-.5s-.571.161-.571.5zm3.196 0v1.893c0 .357.143.5.554.5s.554-.143.554-.5V2.482c0-.339-.179-.5-.554-.5s-.554.161-.554.5zm3.179 0v1.893c0 .357.143.5.554.5.375 0 .571-.161.571-.5V2.482c0-.339-.196-.5-.571-.5s-.554.161-.554.5zm2.143 3.25H3.232v7.982h9.554V5.732zm-7.804 6.161l.107-.804c.393.143.768.214 1.107.214.5 0 .821-.25.821-.607 0-.446-.286-.643-1.196-.696v-.804c.661-.054.982-.268.982-.607 0-.286-.214-.429-.643-.429a2.02 2.02 0 0 0-.946.25l-.107-.804c.339-.161.786-.25 1.304-.25.911 0 1.5.429 1.5 1 0 .518-.339.893-1.018 1.125v.018c.768.214 1.143.589 1.143 1.143 0 .929-.821 1.464-1.946 1.464a2.84 2.84 0 0 1-1.107-.214zm5.714-4.464v4.607h-.982V8.625l-.821.304-.107-.804 1.411-.696h.5z"/></svg>