<svg xmlns="http://www.w3.org/2000/svg" width="16" height="16" viewBox="0 0 16 16"><path d="M0 13.143V4.197a.48.48 0 0 1 .482-.482h3.357l.464-.911c.107-.25.411-.429.679-.429h6.179c.304 0 .536.143.696.429l.464.911h3.196a.48.48 0 0 1 .482.482v8.946a.48.48 0 0 1-.482.482H.481a.48.48 0 0 1-.482-.482zm4.232-4.589c0 1.018.375 1.893 1.107 2.625S6.964 12.268 8 12.268c1.054 0 1.946-.357 2.679-1.089s1.107-1.607 1.107-2.625-.375-1.893-1.107-2.625C9.947 5.215 9.054 4.858 8 4.858c-1.036 0-1.929.357-2.661 1.089S4.232 7.536 4.232 8.554zm1.339.017c0-.661.232-1.214.714-1.696s1.054-.714 1.714-.714 1.25.232 1.732.714.714 1.036.714 1.696-.232 1.214-.714 1.679-1.054.696-1.714.696-1.232-.232-1.714-.696-.732-1.018-.732-1.679z"/></svg>