<svg xmlns="http://www.w3.org/2000/svg" width="16" height="16" viewBox="0 0 16 16"><path d="M1.214 4.446l6.518-3.393a.571.571 0 0 1 .536 0l6.554 3.393c.268.143.268.571 0 .714L8.304 8.571a.644.644 0 0 1-.571 0L1.215 5.16c-.268-.143-.268-.571 0-.714zm12.357 2.536l1.232.625c.268.161.268.571.018.714l-6.518 3.411a.644.644 0 0 1-.571 0L1.214 8.321c-.268-.143-.268-.554 0-.714l1.214-.625c.089-.036.179-.036.232 0l4.679 2.446c.214.089.429.161.661.161.214 0 .446-.036.661-.161l4.679-2.446c.089-.036.179-.036.232 0zm0 3.232l1.232.625c.268.143.268.571.018.714l-6.518 3.393a.644.644 0 0 1-.571 0l-6.518-3.393c-.268-.143-.268-.571 0-.714l1.214-.625c.089-.036.179-.036.232 0l4.679 2.446c.214.089.429.143.661.143.214 0 .446-.036.661-.143l4.679-2.446c.089-.036.179-.036.232 0z"/></svg>