<svg xmlns="http://www.w3.org/2000/svg" width="16" height="16" viewBox="0 0 16 16"><path d="M14.929 3.679v8.625H1.09V3.679h13.839zm-.768.75H1.875v7.125h12.286V4.429zm-11.715.589h4.339c-.786.589-1.321 1.679-1.321 2.946 0 1.286.536 2.411 1.375 3H2.446V5.018zm11.143 5.946H9.196c.804-.589 1.357-1.714 1.357-3 0-1.268-.518-2.357-1.321-2.946h4.357v5.946zM6.75 7.089c0-.839.625-1.179 1.071-1.179v-.304c0-.089.036-.125.125-.125h.125c.089 0 .143.036.143.125v.304c.125 0 .304.036.536.089.268.089.411.179.411.25 0 .036 0 .054-.018.071l-.179.411c-.018.036-.036.054-.054.054l-.036-.018c-.018 0-.036 0-.054-.018a.877.877 0 0 1-.179-.089.889.889 0 0 0-.429-.125v1.143c.625.286 1.054.518 1.054 1.232 0 .768-.571 1.143-1.054 1.196v.286c0 .071-.054.107-.143.107h-.125c-.089 0-.125-.036-.125-.107v-.286c-.286 0-1.054-.161-1.054-.321v-.054l.179-.518.054-.054c.018 0 .125.054.286.143s.339.143.536.161V8.249c-.589-.214-1.071-.518-1.071-1.161zm.696-.053c0 .196.143.357.411.518V6.536c-.268.125-.411.286-.411.5zm-4.232.928c0 .571.304 1.018.643 1.018s.625-.446.625-1.018c0-.554-.286-1.018-.625-1.018s-.643.464-.643 1.018zm8.518.715c.125.196.268.304.446.304.339 0 .643-.446.643-1.018 0-.554-.304-1.018-.643-1.018-.357 0-.625.446-.625 1.018 0 .286.054.518.179.714zM3.714 7.5c.054-.107.107-.161.143-.161.018 0 .071.054.143.161s.107.268.107.464-.036.357-.107.464c-.071.125-.125.179-.143.179-.054 0-.089-.054-.143-.179a.79.79 0 0 1-.125-.464.79.79 0 0 1 .125-.464zm8.322 0c.054-.107.107-.161.143-.161.018 0 .071.054.143.161s.107.268.107.464-.036.357-.107.464c-.071.125-.125.179-.143.179-.054 0-.089-.054-.143-.179-.071-.107-.107-.268-.107-.464s.036-.357.107-.464zm-3.875.893v1.071c.268-.071.411-.25.411-.518 0-.232-.143-.429-.411-.554z"/></svg>