<svg xmlns="http://www.w3.org/2000/svg" width="16" height="16" viewBox="0 0 16 16"><path d="M7.357 1.068l.064.496C3.715 2.041 1.5 4.933 1.5 7.455c.003.183.014.373.034.561.202 1.694.786 2.628 2.229 3.567a.497.497 0 0 1 .217.315c.029.136.029.26.029.359 0 .122.004.241.008.359.018.587.039 1.234-.382 1.859l.118-.018c.922-.16 2.207-.58 3.096-1.678a.5.5 0 0 1 .473-.179c.349.061.349.061.666.061.271-.004.549-.025.824-.063 3.351-.431 5.688-2.756 5.688-5.654 0-.189-.018-.379-.034-.568-.29-3.051-3.343-4.876-6.127-4.876-.27 0-.57.03-.873.059l-.109-.491zM3.31 15.5c-.146 0-.854-.025-1.05-.511a.611.611 0 0 1 .163-.675c.63-.511.616-.971.594-1.667a11.05 11.05 0 0 1-.008-.366C1.466 11.22.768 10.036.54 8.128a7.227 7.227 0 0 1-.04-.666C.5 4.502 3.041 1.12 7.293.571L7.308.57l.049.498.012-.504c.336-.032.67-.064.97-.064 3.231 0 6.778 2.164 7.122 5.785.021.221.039.44.039.659 0 3.416-2.696 6.148-6.555 6.645a7.685 7.685 0 0 1-.951.072 2.315 2.315 0 0 1-.56-.029c-1.068 1.172-2.482 1.631-3.509 1.809a3.714 3.714 0 0 1-.615.059z"/></svg>