<svg width="16" height="16" xmlns="http://www.w3.org/2000/svg"><path fill-rule="evenodd" clip-rule="evenodd" d="M9.25.654a.447.447 0 0 1 .578-.252.447.447 0 0 1 .253.577l-.974 2.492a.447.447 0 0 1-.578.253.447.447 0 0 1-.253-.578L9.25.654zM5.22.492a.444.444 0 0 1 .59.23l.893 2.04a.45.45 0 0 1-.23.589.45.45 0 0 1-.59-.23L4.99 1.08a.45.45 0 0 1 .23-.59zm7.34 2.869a.449.449 0 1 1 .36.82l-2.039.893a.45.45 0 0 1-.59-.23.45.45 0 0 1 .23-.59l2.04-.893zm-10.53.455a.447.447 0 0 1 .578-.253l2.492.974c.228.09.342.35.253.578a.447.447 0 0 1-.578.253l-2.492-.974a.447.447 0 0 1-.253-.578zM4.393 6.94a.46.46 0 0 1 .347-.005.45.45 0 0 1 .012.826l-2.039.892a.45.45 0 0 1-.59-.23.45.45 0 0 1 .231-.59l2.039-.893zm6.996 4.982l2.835-.696-7-6.225v9.267l2.43-1.606L11.142 16l1.735-.754-1.489-3.326z"/></svg>