<svg width="16" height="16" xmlns="http://www.w3.org/2000/svg"><path d="M1 7.661C1 4 4 1 7.661 1c1.839 0 3.411.643 4.732 1.946 1.304 1.321 1.946 2.893 1.946 4.714 0 3.696-2.982 6.696-6.679 6.696-1.839 0-3.411-.661-4.696-1.982C1.66 11.088 1 9.518 1 7.661zm1.661 0c0 2.732 2.268 5 5 5 2.786 0 5-2.214 5-5 0-2.804-2.196-5-5-5-2.768 0-5 2.232-5 5z"/><path fill-rule="evenodd" clip-rule="evenodd" d="M6.982 4.322c0-.143.125-.286.286-.286h.714c.16 0 .286.143.286.286v3.356a.294.294 0 0 1-.286.286h-.714a.294.294 0 0 1-.286-.286L6.98 6l.002-1.678z"/><path fill-rule="evenodd" clip-rule="evenodd" d="M8.268 10.642a.294.294 0 0 1-.286.286h-.714a.294.294 0 0 1-.286-.286V7.286c0-.143.125-.286.286-.286h.714c.161 0 .286.143.286.286l.002 1.678-.002 1.678z"/></svg>