<svg xmlns="http://www.w3.org/2000/svg" width="16" height="16" viewBox="0 0 16 16"><path d="M9.41425 8.00025L13.7072 3.70725C14.0982 3.31625 14.0982 2.68425 13.7072 2.29325C13.3162 1.90225 12.6843 1.90225 12.2933 2.29325L8.00025 6.58625L3.70725 2.29325C3.31625 1.90225 2.68425 1.90225 2.29325 2.29325C1.90225 2.68425 1.90225 3.31625 2.29325 3.70725L6.58625 8.00025L2.29325 12.2933C1.90225 12.6843 1.90225 13.3162 2.29325 13.7072C2.48825 13.9022 2.74425 14.0002 3.00025 14.0002C3.25625 14.0002 3.51225 13.9022 3.70725 13.7072L8.00025 9.41425L12.2933 13.7072C12.4883 13.9022 12.7442 14.0002 13.0002 14.0002C13.2562 14.0002 13.5122 13.9022 13.7072 13.7072C14.0982 13.3162 14.0982 12.6843 13.7072 12.2933L9.41425 8.00025Z"/></svg>