<svg xmlns="http://www.w3.org/2000/svg" width="16" height="16" viewBox="0 0 16 16"><path d="M1.339 9.929c0-.982.518-1.821 1.321-2.321a2.072 2.072 0 0 1-.089-.536c0-1.018.821-1.839 1.839-1.839.429 0 .804.125 1.107.393a3.934 3.934 0 0 1 3.589-2.268A3.96 3.96 0 0 1 13.07 7.34v.107c-.018.018-.018.071-.018.125.982.429 1.625 1.357 1.625 2.429 0 1.429-1.107 2.625-2.625 2.625-.036 0-.054 0-.071-.018h-3.25v-2.571h1.696c.268 0 .357-.179.161-.375L8.267 6.894c-.107-.107-.196-.161-.286-.161-.107 0-.214.054-.321.161L5.339 9.662c-.161.196-.089.375.179.375h1.696v2.571H3.982c-1.429 0-2.643-1.196-2.643-2.679z"/></svg>