<svg xmlns="http://www.w3.org/2000/svg" width="16" height="16" viewBox="0 0 16 16"><path d="M14.5 3h-3.408l1.2 1.2H14.5c.163 0 .3.137.3.3v8c0 .163-.137.3-.3.3h-10a.304.304 0 0 1-.3-.3V10H3v2.5c0 .825.675 1.5 1.5 1.5h10c.825 0 1.5-.675 1.5-1.5v-8c0-.825-.675-1.5-1.5-1.5zM3 9.386l.146-.583L3 8.948v.438zm2.726-.842L7.362 2H6.135L4.499 8.544h1.227zM3.272 3.636l-.818-.818L0 5.272l2.454 2.454.818-.818-1.636-1.636 1.636-1.636zm5.726-.818l2.454 2.454-2.454 2.454-.818-.818 1.636-1.636L8.18 3.636l.818-.818z"/></svg>