<svg xmlns="http://www.w3.org/2000/svg" width="16" height="16" viewBox="0 0 16 16"><path d="M12.375 9.75A2.62 2.62 0 0 1 15 12.375C15 13.839 13.821 15 12.375 15s-2.607-1.161-2.625-2.643a.873.873 0 0 0-.875-.857h-1.75a.877.877 0 0 0-.875.875A2.618 2.618 0 0 1 3.625 15 2.607 2.607 0 0 1 1 12.375 2.618 2.618 0 0 1 3.625 9.75a.877.877 0 0 0 .875-.875v-1.75a.877.877 0 0 0-.875-.875A2.618 2.618 0 0 1 1 3.625 2.607 2.607 0 0 1 3.625 1 2.618 2.618 0 0 1 6.25 3.625c0 .482.393.875.875.875h1.75a.877.877 0 0 0 .875-.875C9.75 2.161 10.929 1 12.375 1S15 2.161 15 3.625a2.63 2.63 0 0 1-2.625 2.625.877.877 0 0 0-.875.875v1.75c0 .482.393.875.875.875zM3.625 4.5c.482 0 .875-.393.875-.875s-.393-.875-.875-.875-.875.393-.875.875.393.875.875.875zm8.75-1.75c-.482 0-.875.393-.875.875s.393.875.875.875.875-.393.875-.875-.393-.875-.875-.875zM9.75 8.875v-1.75a.877.877 0 0 0-.875-.875h-1.75a.877.877 0 0 0-.875.875v1.75c0 .482.393.875.875.875h1.75a.877.877 0 0 0 .875-.875zM3.625 13.25c.482 0 .875-.393.875-.875s-.393-.875-.875-.875-.875.393-.875.875.393.875.875.875zm8.75 0c.482 0 .875-.393.875-.875s-.393-.875-.875-.875-.875.393-.875.875.393.875.875.875z"/></svg>