<svg xmlns="http://www.w3.org/2000/svg" width="16" height="16" viewBox="0 0 16 16"><path d="M14.696 3.804l-1.125 1.125-1.714-1.714 1.125-1.125zm-3.41 0l1.696 1.714-5.125 5.125h-.018l-2.518.839.804-2.554zm-9.965 8.5V5.929c0-.875.714-1.607 1.589-1.607h6.375l.304.036L8.41 5.519h-5.5a.401.401 0 0 0-.393.411v6.375c0 .214.179.393.393.393h6.375a.397.397 0 0 0 .393-.393V9.966l1.179-1.214v3.554c0 .875-.732 1.607-1.571 1.607H2.911c-.875 0-1.589-.732-1.589-1.607zm10.25-7.34l-.286-.268-4.25 4.232.286.286z"/></svg>