<svg xmlns="http://www.w3.org/2000/svg" width="16" height="16" viewBox="0 0 16 16"><path d="M2.089 13.054c0-.518.25-.768.732-.768h.446v-.5h-.446c-.446 0-.732-.286-.732-.768 0-.5.25-.75.732-.75h.446v-.5h-.446c-.446 0-.732-.286-.732-.768 0-.5.25-.75.732-.75h.446v-.518h-.446c-.482 0-.732-.25-.732-.75 0-.482.286-.768.732-.768h.446v-.5h-.446c-.482 0-.732-.25-.732-.75 0-.518.25-.768.732-.768h.446v-.518h-.446c-.482 0-.732-.25-.732-.75 0-.482.286-.768.732-.768h.446v-.839H13.91v13.357H3.267v-.857h-.446c-.446 0-.732-.286-.732-.768zm.429-10.125c0 .232.107.357.304.357h1.196c.196 0 .304-.125.304-.357s-.107-.339-.304-.339H2.822c-.196 0-.304.107-.304.339zm0 2.035c0 .232.107.339.304.339h1.196c.196 0 .304-.107.304-.339s-.107-.357-.304-.357H2.822c-.196 0-.304.125-.304.357zM12 10.821v-.661c-.143-.357-.321-.518-.804-.732a6.881 6.881 0 0 1-.732-.411A3.467 3.467 0 0 0 9.41 8.66c.179-.196.357-.536.536-1.018.054-.143.089-.268.089-.375v-.393c0-.161 0-.304.018-.411 0-.125-.018-.25-.036-.375-.161-.554-.571-.839-1.214-.839s-1.054.286-1.214.839c-.018.125-.036.25-.018.375.018.107.018.25.018.411v.393c0 .179.107.5.321.946.089.179.196.321.286.446-.411.071-.75.196-1.054.357-.304.196-.554.321-.732.411-.375.179-.607.339-.696.5a.542.542 0 0 0-.089.232v.661H12zM2.518 6.982c0 .232.107.339.304.339h1.196c.196 0 .304-.107.304-.339 0-.25-.107-.375-.304-.375H2.822c-.196 0-.304.125-.304.375zm.303 2.375h1.196c.196 0 .304-.125.304-.357s-.107-.357-.304-.357H2.821c-.196 0-.304.125-.304.357s.107.357.304.357zm0 2.018h1.196c.196 0 .304-.125.304-.357s-.107-.357-.304-.357H2.821c-.196 0-.304.125-.304.357s.107.357.304.357zm-.303 1.679c0 .232.107.357.304.357h1.196c.196 0 .304-.125.304-.357 0-.25-.107-.357-.304-.357H2.822c-.196 0-.304.107-.304.357z"/></svg>