<svg xmlns="http://www.w3.org/2000/svg" width="16" height="16" viewBox="0 0 16 16"><path d="M1.107 6.25l1.536 4.482c.036 0 .071 0 .089-.018s.089-.018.214-.018V8.339l.036-.071-.643-1.893a.931.931 0 0 0 .214-.25c.125-.161.196-.375.214-.643l7.125-2.429c.089.089.196.179.286.232.196.143.393.214.607.214l1.036 3h1.196L11.713 2.66a.795.795 0 0 1-.411 0c-.286-.054-.518-.304-.679-.732L1.516 5.053c.143.429.089 1.036-.411 1.196zm1.929.321l.411 1.214c.054-.018.125-.125.143-.179.018-.036.071-.071.125-.089h-.054c.036 0 .054-.089.071-.268 0-.411.375-.75.786-.75h6.679l-.839-2.429c-.268-.071-.5-.179-.661-.321L3.376 5.91c-.054.232-.179.446-.339.661zm.678 1.715v4.75c.161.018.304.071.411.125.268.161.393.464.393.911h9.607c0-.554.214-.982.786-1.036v-4.75a1.15 1.15 0 0 1-.375-.125c-.268-.161-.393-.464-.411-.875H4.518c-.054.554-.232.946-.804 1zm1.125.5l.268-.161c.196-.179.339-.357.429-.536h7.554c.125.286.393.554.696.696v3.75l-.286.161c-.232.179-.357.375-.411.554H5.535a1.441 1.441 0 0 0-.179-.339 1.99 1.99 0 0 0-.518-.375v-3.75zm.607.428v2.893c.268.196.446.375.536.536h6.643c.089-.125.268-.304.554-.536V9.196c-.268-.214-.446-.375-.536-.5H5.964a2.831 2.831 0 0 1-.518.518z"/></svg>