<svg xmlns="http://www.w3.org/2000/svg" width="16" height="16" viewBox="0 0 16 16"><path d="M3.304 3.268C4.608 1.964 6.161 1.322 8 1.322s3.411.643 4.732 1.946C14.036 4.589 14.678 6.161 14.678 8c0 3.661-2.982 6.679-6.679 6.679-1.839 0-3.411-.661-4.696-1.982-1.304-1.286-1.964-2.857-1.964-4.696S2 4.572 3.303 3.269zm1.892 5.178H3.035c.089 1.196.571 2.214 1.464 3.089a4.684 4.684 0 0 0 3.089 1.429v-2.125h.875v2.125c2.357-.161 4.25-2.071 4.518-4.518h-2.125v-.875h2.125c-.161-2.375-2.071-4.286-4.518-4.554v2.161h-.875V3.017c-2.411.161-4.411 2.179-4.571 4.554h2.179v.875z"/></svg>