<svg xmlns="http://www.w3.org/2000/svg" width="16" height="16" viewBox="0 0 16 16"><path d="M3 3l-.821.018c-.536 0-.821.089-1.036.286-.196.196-.304.607-.304 1.107V6.5c0 .196-.107.393-.107.5-.107.107-.107.196-.214.304 0 .089-.089.196-.196.196-.107.107-.214.107-.321.107v.786c.107 0 .214.107.321.107l.196.196c.107 0 .214.196.214.304.107.107.107.304.107.5v2.089c0 .5.107.911.304 1.107.214.196.518.304 1.036.304H3v-.804h-.411c-.196 0-.304-.107-.411-.196-.107-.107-.107-.304-.107-.5V9.393c0-.196 0-.393-.107-.589 0-.196-.089-.304-.196-.411-.107-.089-.214-.196-.304-.196-.107 0-.214-.089-.321-.089l.018-.018c.089.018.196-.089.304-.089.089 0 .196-.107.304-.196.107-.107.107-.196.196-.411.107-.089.107-.286.107-.589V4.698c0-.196 0-.393.107-.5.107-.089.196-.196.411-.196h.429zm10.089 10l.821-.018c.518 0 .839-.089 1.054-.286.196-.196.304-.607.304-1.107V9.5c0-.5.107-.696.214-.893.089-.107.304-.214.518-.214v-.786c-.107 0-.214-.107-.321-.107l-.196-.196c-.107 0-.214-.196-.214-.304-.107-.107-.107-.304-.107-.5V4.411c0-.5-.107-.911-.304-1.107C14.644 3.108 14.34 3 13.822 3h-.821v1h.411c.196 0 .304.107.411.196.107.107.107.304.107.5v2.107c0 .196 0 .393.107.589 0 .214.089.304.196.411.107.089.214.196.304.196.107 0 .214.107.304.089-.089.018-.196.107-.304.107-.089 0-.196.107-.304.196-.107.107-.107.214-.196.411-.107.089-.107.304-.107.589v2.107c0 .196 0 .393-.107.5-.107.089-.214.196-.411.196h-.321v.804zM4.5 9h1V7l-1 .018V9zm3 0h1V7l-1 .018V9zm3 0h1V7l-1 .018V9z"/></svg>