<svg xmlns="http://www.w3.org/2000/svg" width="16" height="16" viewBox="0 0 16 16"><path d="M1.339 9.893c0-4.125 3.107-6.946 7.018-6.946 1.839 0 3.339.5 4.482 1.482 1.071.911 1.821 2.357 1.821 4.143 0 .661-.107 1.25-.339 1.75-.232.589-.518 1.054-.893 1.429-.714.786-1.875 1.304-3 1.304-.554 0-.946-.143-1.179-.375-.268-.214-.393-.536-.393-.946 0-.089 0-.179.018-.286H8.82a6.188 6.188 0 0 1-1.054 1.107c-.464.321-.964.5-1.482.5-.482 0-.893-.214-1.214-.607-.214-.268-.5-.804-.5-1.536 0-1.232.357-2.321 1.071-3.268.732-.929 1.589-1.464 2.571-1.464.571 0 1.071.179 1.518.554l.446-.464h1.036l-.714 3.946a2.623 2.623 0 0 0-.071.607c0 .304.054.714.554.714.518 0 .982-.25 1.393-.732a3.31 3.31 0 0 0 .625-1.518c.018-.286.036-.518.036-.714 0-1.482-.482-2.429-1.357-3.143-.804-.643-2.214-.982-3.357-.982-1.446 0-2.714.518-3.804 1.536C3.481 7.02 2.963 8.305 2.963 9.841c0 1.5.482 2.518 1 3.196H2.017l-.071-.161a.548.548 0 0 1-.107-.232c-.339-.804-.5-1.732-.5-2.75zm5.018.536c0 .732.286 1.107.857 1.107.107 0 .25-.036.446-.125.125-.089.286-.196.446-.339.357-.357.625-.696.804-1.018l.357-2.018a1.41 1.41 0 0 0-.911-.339c-1.125 0-1.696 1.143-1.857 1.786a2.938 2.938 0 0 0-.143.946z"/></svg>