<svg xmlns="http://www.w3.org/2000/svg" width="16" height="16" viewBox="0 0 16 16"><path d="M13.5 3.5h.5v12H2v-12h.5V1.411C2.5.679 3.536.5 4 .5s1.5.179 1.5.911V3.5h1V1.411C6.5.679 7.268.5 8 .5c.714 0 1.5.179 1.5.911V3.5h1V1.411C10.5.679 11.268.5 12 .5c.714 0 1.5.179 1.5.911V3.5zm-10-2V4h1V1.5h-1zm4 0V4h1V1.5h-1zm4 0V4h1V1.5h-1zM3 14.5h10v-9H3v9zm4.179-2.036h-.321a.65.65 0 0 1-.464-.232l-1.768-2.071c-.107-.125-.107-.339 0-.446l.696-.821c.107-.125.286-.125.375 0l1.125 1.321c.125.107.304.107.411 0l3.089-3.625a.253.253 0 0 1 .393 0l.696.804a.375.375 0 0 1 0 .464l-3.75 4.375c-.125.125-.339.232-.482.232z"/></svg>