<svg xmlns="http://www.w3.org/2000/svg" width="16" height="16" viewBox="0 0 16 16"><path d="M9.804 4.571L10.411 4c.179-.179.179-.429 0-.589L8.268 1.393a.42.42 0 0 0-.589 0L5.572 3.375c-.179.179-.179.429 0 .589l.589.589a.465.465 0 0 0 .625 0l.339-.286V9.41c0 .232.214.429.429.429h.857a.435.435 0 0 0 .429-.429V4.285l.357.286a.442.442 0 0 0 .607 0zm-6.09 10.393h8.571c.946 0 1.714-.75 1.714-1.714V8.125c0-.946-.768-1.714-1.714-1.714h-.857v1.714h.857v5.125H3.714V8.125h.857V6.411h-.857C2.768 6.411 2 7.179 2 8.125v5.125c0 .964.768 1.714 1.714 1.714z"/></svg>