<svg xmlns="http://www.w3.org/2000/svg" width="16" height="16" viewBox="0 0 16 16"><path d="M1.089 13.661a.38.38 0 0 1 .107-.286l1.089-1.054a.606.606 0 0 1-.179-.464c0-.214.071-.393.214-.536l6.036-6.036-.571-.589a.881.881 0 0 1-.286-.679v-.125c.054-.661.625-1.196 1.286-1.25h.089c.286 0 .518.089.696.268l.589.571 1.893-1.893c.339-.339.732-.5 1.196-.5s.857.161 1.196.5c.321.357.482.75.482 1.196 0 .464-.161.857-.482 1.179l-1.911 1.911.536.536a.881.881 0 0 1 .286.679v.125a1.374 1.374 0 0 1-1.25 1.25h-.107c-.286 0-.518-.089-.696-.268l-.554-.536-6.036 6.054a.85.85 0 0 1-.5.214h-.054a.704.704 0 0 1-.482-.179l-1.054 1.054c-.089.071-.179.107-.268.107s-.179-.036-.25-.107l-.911-.893a.354.354 0 0 1-.107-.25zm9.125-6.536L8.91 5.804l-6.071 6.054 1.321 1.304zm-7.143 6.161l-.357-.357-.714.732.357.339z"/></svg>