<svg xmlns="http://www.w3.org/2000/svg" width="16" height="16" viewBox="0 0 16 16"><path d="M14.071 6.661v.286C15.214 7.411 16 8.536 16 9.858c0 1.732-1.357 3.143-3.089 3.143h-1.75l1.036-1.214c.429-.518.536-1.179.268-1.732-.268-.571-.821-.911-1.5-.911h-.714V7.358c0-1.054-.768-1.911-1.821-1.911h-.839c-1.054 0-1.821.857-1.821 1.911v1.786h-.714c-.679 0-1.232.339-1.5.911-.268.554-.161 1.214.268 1.732l1.036 1.214H3.164a3.229 3.229 0 0 1-1.59-6 2.55 2.55 0 0 1-.089-.661c0-1.214.982-2.196 2.196-2.196.5 0 .964.179 1.339.464a4.751 4.751 0 0 1 4.304-2.714 4.752 4.752 0 0 1 4.75 4.768zM9 10.482h1.964c.304 0 .411.196.196.446l-2.804 3.321c-.107.125-.214.179-.357.179a.439.439 0 0 1-.357-.179l-2.786-3.321c-.214-.25-.107-.446.196-.446h1.964V7.357c0-.304.25-.571.571-.571h.839c.321 0 .571.268.571.571v3.125z"/></svg>