<svg xmlns="http://www.w3.org/2000/svg" width="16" height="16" viewBox="0 0 16 16"><path d="M14.071 6.589l-.018.286c1.161.5 1.946 1.607 1.946 2.911 0 1.75-1.411 3.214-3.161 3.214h-2.339v-1.357h.554c.661 0 1.232-.321 1.5-.893.268-.554.161-1.196-.286-1.732L9.481 5.697c-.357-.429-.946-.661-1.482-.661-.518 0-1.125.232-1.482.661L3.731 9.018c-.429.536-.536 1.179-.268 1.732.268.571.804.893 1.5.893h.536V13H3.178C1.41 12.964-.001 11.482-.001 9.714a3.24 3.24 0 0 1 1.554-2.768 2.662 2.662 0 0 1-.089-.661c0-1.214 1-2.196 2.196-2.196.5 0 .982.179 1.339.464A4.778 4.778 0 0 1 9.32 1.839a4.748 4.748 0 0 1 4.75 4.75zm-5.607-.035l2.786 3.321c.196.25.107.446-.196.446H9v3.107c0 .339-.25.589-.571.589h-.857a.579.579 0 0 1-.571-.589v-3.107H4.965c-.321 0-.411-.196-.196-.446l2.786-3.321c.107-.125.304-.179.446-.179.125 0 .357.054.464.179z"/></svg>