<svg xmlns="http://www.w3.org/2000/svg" width="16" height="16" viewBox="0 0 16 16"><path d="M5.857 10.411l-1.375 3.607c-.125.268.018.571.304.696L5 14.75c.232 0 .411-.125.5-.357l1.536-3.982H8.84l1.536 3.982a.52.52 0 0 0 .518.357l.196-.036c.286-.125.446-.429.321-.696l-1.393-3.607h3.643V2.643h-5.25v-.929c0-.268-.196-.464-.464-.464s-.464.196-.464.464v.929H2.34v7.768h3.518zm6.697-6.697v5.589H3.447V3.714h9.107zM7.161 6.768l.607.911L10.5 5.84l.375.518.786-1.768-1.929.089.375.571-2.161 1.429-.589-.893-3.125 2.089.393.607z"/></svg>