<svg xmlns="http://www.w3.org/2000/svg" width="16" height="16" viewBox="0 0 16 16"><path d="M7 7.554L1.5 3c.054-.036.143-.036.196-.036h10.661c.071 0 .143 0 .214.036zm-2.018-.786l-3.946 3.714c0-.089-.036-.161-.036-.232V3.661c0-.054 0-.143.036-.196zm4.036 0l3.964-3.304c0 .054.018.107.018.196v4.911l-2.304-1.518v1.286zm-1.875 4a.444.444 0 0 0-.161.196H1.696c-.089 0-.143 0-.196-.036l3.964-3.696L7 8.464l1.536-1.232 2.018 1.893c-.036.036-.054.036-.125.036a6.226 6.226 0 0 0-1.589.464c-.679.304-1.268.643-1.696 1.143zm4.071 2.268v-1.625c-.804 0-1.25.036-1.589.054-1.732.214-2.464 1.107-2.696 1.429-.054.089-.107.143-.107.143 0-3.196 4.375-3.5 4.375-3.5V7.983l3.804 2.518z"/></svg>