<svg xmlns="http://www.w3.org/2000/svg" width="16" height="16" viewBox="0 0 16 16"><path d="M1.768 6.375l-.911-.268C1.178 4.982 2.053 4.428 3.5 4.428a8.626 8.626 0 0 1 1.607.196c-1-1.071-1.607-2.446-.196-3.214a1.97 1.97 0 0 1 .946-.25c1.268 0 2.107.982 2.768 2.625.625-1.089 1.339-1.643 2.161-1.643 1.232 0 2.036 1.071 1.589 2.286-.089.286-.25.536-.446.732-.125.125-.25.232-.375.286.196-.018.339-.054.429-.089.982-.232 1.554-.518 1.714-.875.089-.179 0-.429-.25-.732l.714-.589c1 1.232.482 2.196-1.018 2.821l.929.268-2.089.554v-.018l-1.036-.268c-.643.089-1.232.143-1.786.161l1.643.464-2.393.643-2.25-.607 1.964-.536a8.232 8.232 0 0 0-.929-.411l-2.25.607-2.214-.589 2.357-.661 1.161.321c-.214-.071-.429-.143-.643-.196l-.643-.161c-1.089-.232-1.929-.214-2.482.018a1.19 1.19 0 0 0-.714.804zm3.321-3.5c.161.661 1 1.536 1.982 2.179l.893-.25c-.304-1.018-.679-1.75-1.107-2.214-.304-.339-.643-.5-1-.5-.411 0-.911.339-.768.786zm4.072 2.018l.875.25c.929-.411 1.571-.589 1.518-1.429-.071-.554-.571-.625-.768-.625-.714 0-1.25.821-1.625 1.804zM4.929 7.429V14l-2.196-.607V6.822zm9.16-.608v6.571l-2.143.589V7.427zm-2.928.804v6.571l-2.375.643V8.268zM8 8.268v6.571l-2.304-.625V7.643z"/></svg>