<svg xmlns="http://www.w3.org/2000/svg" width="16" height="16" viewBox="0 0 16 16"><path d="M3.304 12.696c1.286 1.321 2.857 1.982 4.714 1.982 3.661 0 6.661-3.018 6.661-6.679 0-1.839-.643-3.411-1.946-4.732-1.321-1.304-2.893-1.946-4.714-1.946A6.67 6.67 0 0 0 1.34 8c0 1.839.661 3.411 1.964 4.696zm-.143-6.982a5.244 5.244 0 0 1 1.214-1.661h.018a.13.13 0 0 0 .071-.036c0 .089 0 .161.071.25.089-.018.125 0 .125.018h-.054c.018.054.018.071-.036.054s-.107-.036-.179-.036c-.054 0-.071.018-.036.071.018 0 .036 0 .036.018l.036.036.214.036c.018.018.054.018.071 0a.455.455 0 0 0 .125-.054c.018-.018 0-.018-.018-.018 0-.036-.018-.054-.071-.054a.137.137 0 0 1 .089-.036c.018.018.054.018.089.018.018-.036.036-.054.018-.071.018-.054.054-.071.089-.089.018.018.018 0 .036-.036.054.018.089.054.089.089l.036.054.071.071c.054.089.089.071.089-.018.054.018.089.089.089.179.071-.018.107-.071.107-.179v-.054c.018-.018.036-.018.054 0s.018 0 .018-.018c.018 0 .018.018.018.036.018.018.054.018.071 0 .125 0 .071.214 0 .214-.036.018-.054.036-.054.054-.054.054-.054.089.036.107a.37.37 0 0 1 .143.071h-.071c-.036 0-.054 0-.054-.018-.036 0-.071 0-.107.018-.054.018-.107.018-.125 0 .054 0 .089-.054.107-.161-.089-.018-.143 0-.161.089-.018.071-.054.089-.071.036-.018-.018-.054-.018-.071.018l-.143.054c-.071.018-.107.054-.107.089v.179c.125.089.179.143.179.179a.346.346 0 0 0 .143.018.418.418 0 0 0 .143.036c0 .018.018.036.071.036 0 .054.018.071.036.071h.089c0-.054.018-.054.054 0l.071.107c-.018 0-.018.018 0 .054 0 .018.018.071.036.089h-.018c.054.054.143.018.143-.036-.018 0-.036-.036-.036-.089-.054-.054-.054-.107.018-.125 0 .071.196-.018.071-.071.054-.089.054-.143 0-.196-.018-.018-.018-.018-.036-.018l-.036-.018c.036-.018.054-.054.036-.089s-.018-.071-.018-.125h.089l.125.036c.036.018.071 0 .089-.054.071.018.089.054.071.071h.089a.54.54 0 0 0 .143.143c0 .036 0 .054.018.054-.018 0-.018.018-.018.036h.071c.018.018.036.018.036-.018.071 0 .107-.036.107-.125.018 0 .054.036.071.089.018.071.036.107.054.107.036.036.071.054.089.071.054.054.089.107.089.161.018 0 .054-.018.071-.054 0 0 0 .018.018.054.054 0 .089.036.089.089-.036 0-.036.018-.018.036s.018.036-.018.036c0 .018-.018.036-.054.018s-.071-.018-.107-.018c-.018.089-.089.125-.179.107s-.179-.018-.268 0c-.071.018-.232.196-.232.286a.161.161 0 0 0 .125-.054.193.193 0 0 1 .089-.054.135.135 0 0 0 .089-.036l.071-.036c0 .018 0 .018.018.018v.018h-.054c-.018.018-.036.018-.018.036.036.125.089.179.179.179-.018.018-.018.036-.036.018a.039.039 0 0 0-.036.036c-.036 0-.071.018-.089.036s-.054.018-.089.018l.036-.036h.054c-.018-.054-.054-.071-.107-.054-.018.018-.036.018-.071.018l-.036.036c-.018.018-.036.036-.054.036a.187.187 0 0 0-.036.089.194.194 0 0 1-.143.143l-.036.018c-.018.018-.036.018-.018.018-.018.018-.036.036-.054.036-.018.018-.018.036-.018.071-.036 0-.054.054-.054.143-.018.018-.036.054-.054.125-.018.054-.054.071-.107.071-.018.054-.036.089-.089.107s-.071.054-.071.143c.036.036.054.107.054.232.018.089 0 .125-.036.125-.054-.054-.071-.071-.054-.089 0-.071-.071-.268-.143-.214-.036.036-.054.036-.071.018-.036-.036-.107-.054-.232-.054a.137.137 0 0 1 .036.071c-.089.054-.143.036-.179-.018-.018-.018-.036-.018-.071-.018-.161.018-.232.107-.232.268-.018 0-.018.036-.018.125 0 .107.018.179.054.214.018.054.036.089.036.107.018 0 .054.018.089.054.036.054.071.071.089.071v.036l.071.018.036-.036c.018 0 .018-.018.018-.036-.071-.018-.036-.107.036-.125 0 .036.018.036.036.018l.054-.036h.018c.018 0 .018 0 .018-.018h.018c.018 0 .036 0 .054-.018.018.018.018.018.018.036a.039.039 0 0 0-.036.036l-.036.036-.054.161c-.018.018 0 .054.018.071s.018.036 0 .054a.43.43 0 0 0 .214 0v-.018c.054 0 .071.036.054.089s-.018.089 0 .089c0 .054 0 .071.018.089s.018.054.018.089c.054.036.089.071.071.125.018.018.054.018.107.018s.071-.018.071-.071c.054 0 .089.036.089.125.089 0 .143-.036.125-.089s-.018-.089.018-.089c0-.018.018-.018.036 0s.036 0 .054-.018l.036-.036c0-.018 0-.018.018-.018l.018-.018c.054.018.107.036.125.018.089-.018.125-.018.143.036 0 .054.036.071.089.071h.107c.036.018.071 0 .089-.018.018.018.018.018.036.018l.018.018c.018 0 .036 0 .036.018s0 .018.018.018c0 .018.018.036.036.036l.036.036c0 .018.018.036.036.036.054.036.071.054.054.071 0 .018.018.018.054.036.036 0 .054 0 .071.018s.036.018.071.018c.018-.036.036-.054.054-.036l.071.071c.054.036.071.054.054.054-.018.018 0 .036.018.089a.137.137 0 0 1 .036.071c0 .054 0 .071.018.089-.018 0-.018.018-.018.071v.054a.056.056 0 0 0 .036.018c.054.018.071 0 .071-.036.018.018.018.018.036.018s.018 0 .036.018.036.036.054.036c0 .018.054.143.054.018.054 0 .071.018.071.054 0 .054 0 .089-.018.107.054 0 .071 0 .089-.018s.036-.018.071-.018.071 0 .089-.018a.526.526 0 0 1 .196.125c.125.089.143.357.018.446l-.125.143v.107c0 .054 0 .089-.018.089 0 .161-.018.232-.054.232 0 .054 0 .071-.018.089s-.036.054-.054.107a.349.349 0 0 1-.107.071l-.125.089c-.018 0-.036 0-.054.018s-.036.018-.054.018l-.018.036c-.018 0-.018 0-.018.018l-.036.036c-.018.018-.018.071 0 .143 0 .054-.018.107-.036.125s-.036.036-.036.054c-.018 0-.036 0-.018.018 0 .018-.018.018-.054.018-.054 0-.143.071-.143.143 0 .054-.036.107-.089.161l-.054.036c-.036.018-.054.036-.054.054.018 0 .018.018.018.054-.018.036-.018.071-.018.089-.089-.018-.125 0-.125.054a.303.303 0 0 0-.179.054v.018c-.018 0-.018 0-.018.018v.036c0 .054-.018.054-.036.036-.036-.018-.071 0-.089.018.071.089.036.143.018.161l-.107.107c-.054.089-.054.107-.054.179v.054c.018 0 .036 0 .036-.018v-.018c0-.054.089.018.036.018l-.107.143c-.054 0-.125.161-.054.161 0 .018 0 .036.018.036v.054l-.214-.071c-.054 0-.161-.054-.214-.071 0-.393.018-.589.054-.589 0-.089.018-.143.054-.143v-.232c-.018-.018-.018-.054 0-.089 0-.018 0-.036.018-.054s.018-.036.018-.054c.054-.018.071-.107.071-.304v-.179c0-.054.018-.071.054-.071 0-.125.018-.232.036-.357.018-.054 0-.143-.018-.304-.018 0-.036-.018-.036-.054l-.036-.018-.054-.071c-.125 0-.214-.161-.214-.286-.018 0-.018-.018-.018-.036s0-.036-.018-.036-.018-.036-.018-.071c.018 0 .018-.018 0-.054a.847.847 0 0 0-.143-.214l-.036-.036c-.054-.036-.071-.071-.036-.125l.054-.143c-.071-.018-.018-.286.054-.286a.13.13 0 0 1 .036-.071c.036.018.071.018.089 0l-.036-.036v-.232c0-.054-.071-.357-.143-.071l-.143-.054c-.054 0-.089-.036-.107-.089.018-.071-.018-.125-.125-.161.054-.071-.161-.214-.25-.214 0 .018-.018 0-.054-.036-.036 0-.054-.018-.071-.054s-.054-.054-.107-.054-.089-.018-.143-.036c-.071-.018-.125-.036-.161-.036-.018-.018-.054-.036-.089-.054-.054 0-.089-.018-.107-.054-.071 0-.107-.071-.107-.196 0-.196-.054-.286-.143-.286 0-.054-.125-.143-.179-.143 0-.089-.018-.125-.071-.125a.31.31 0 0 0-.054-.125c-.089-.089-.125.018-.054.071.036.036.054.071.054.089.018 0 .036.036.071.089a.287.287 0 0 0 .054.107c.054.089.089.143.089.161-.018.018-.054.018-.071 0-.107-.054-.161-.107-.161-.196-.071-.018-.107-.107-.107-.232-.036 0-.071-.054-.107-.179 0-.107-.054-.161-.161-.161-.018 0-.036-.036-.054-.089l-.054-.071c0-.107-.036-.179-.125-.196 0-.071 0-.125-.018-.161a.196.196 0 0 1 0-.143c0-.232-.054-.393-.161-.482zM9.25 6.5c-.018 0 .018-.25.036-.304.018 0 .018.018.018.036.054-.018.089-.036.143-.036.054.018.071 0 .071-.018.054 0 .071.018.054.071h.089c.036 0 .054-.018.054-.054a.039.039 0 0 1-.036-.036c.054-.054.071-.107.018-.161s-.089-.089-.089-.107l-.071-.054.125.036c.018 0 .018-.018.018-.071l.018-.018c.018.018.036.036.054.036.018.018.036 0 .089-.054.018-.018 0-.018-.018-.018.018-.018.018-.036.018-.054-.018-.018-.018-.018 0-.036h.071c-.018-.018 0-.054.018-.071 0 .054.018.054.036 0a.137.137 0 0 1 .071-.036.099.099 0 0 1 .089-.054c.018.018.054 0 .071-.036a.137.137 0 0 1-.036-.089v-.107c.018 0 .036-.018.089-.036.018 0 .036.018.054.071 0 .018 0 .036.018.036.054.018.071.018.071 0v-.071c-.018 0-.036-.018-.054-.071v-.036c-.018 0-.018 0-.018-.018s0-.018-.018-.036a.13.13 0 0 0-.071.036c-.054 0-.107 0-.125-.018s-.054-.018-.107-.018l-.018-.018c-.018-.018-.036-.036-.036-.054l-.036-.054c-.018-.054 0-.071.018-.071.018.018.036.018.054.018 0-.036.054-.071.179-.089s.196-.071.196-.125c-.054 0-.036-.036.018-.089l.107-.125.089-.089c.018-.018.054-.036.125-.054.036 0 .071 0 .107-.018l.357-.071c.054 0 .071 0 .071.018h.179c.089 0 .143.018.143.036.036 0 .071 0 .107.018.054.018.071.036.089.018.054-.054.286.071.286.143-.089 0-.143 0-.196.018-.089.018-.161.036-.214.036 0 .018 0 .018.018 0l-.018.036c.054 0 .143.107.143.161.036 0 .071-.018.089-.036s.036-.018.054-.018c0 .036.018.054.036.054s.036-.018.054-.054c-.018 0-.036-.018-.036-.036s0-.036.018-.036.054-.036.071-.036c.018.018.054.018.071-.036.714.857 1.125 1.857 1.25 3-.054 0-.125-.018-.196-.036-.125 0-.214-.018-.268-.071s-.143-.054-.25-.036V7.39c0-.054-.018-.089-.071-.143-.143-.143-.179 0-.054.125 0 .036.018.071.036.089s.036.036.018.054l.036.018.018-.071h.018c0 .054 0 .089.018.107l.036.036c0 .018 0 .018-.018 0v.036c.089 0 .161-.054.214-.161.018.018.036.036.018.054s-.018.018 0 .018c.054.054.054.089.036.107.054.054.071.018.071-.036.089.054.089.125 0 .196 0 .018 0 .036-.018.054s-.018.036-.018.054c0 .125 0 .125-.196.196-.089.054-.125.089-.107.107-.125 0-.214.036-.232.107-.107 0-.161.018-.179.071-.089 0-.125-.036-.125-.107-.018-.054-.054-.089-.089-.089.018-.018 0-.036-.036-.071.018 0 .018-.018 0-.071-.018-.089-.071-.179-.125-.286-.018-.018-.018-.036-.018-.054l-.018-.036a.216.216 0 0 1-.071-.161.473.473 0 0 1-.107-.179.661.661 0 0 1-.161-.214h.107c.036 0 .054-.018.054-.071l-.036-.018c-.036-.018-.036-.036.018-.036 0-.036 0-.054.018-.071s.018-.036.018-.054c.054-.196.054-.232-.089-.179 0 .036-.018.036-.054 0-.018 0-.036 0-.054-.018s-.071-.018-.125 0c-.054.036-.107.018-.125-.036a.099.099 0 0 1-.054-.089c0-.089-.054-.196-.179-.196-.036.018-.036.036-.018.071.018.071.036.107.018.125.036 0 .036.018.018.036-.036.036-.054.071-.054.089-.054-.018-.089-.054-.089-.107-.018-.018-.036-.054-.071-.089-.018-.018-.036-.036-.018-.054h-.036v-.089c0-.054-.018-.089-.071-.089a.13.13 0 0 1-.071-.036c-.018 0-.071-.036-.125-.107-.054-.089-.107-.107-.125-.054-.018.018-.018.036 0 .054l.036.054c.054-.018.071 0 .089.054 0 .071.036.089.089.071 0 .018 0 .036.018.036v.036c.018-.018.054 0 .071.018 0 .036.018.054.036.054-.018.018-.036.018-.071-.018 0 0 0 .018-.018.036.018.036-.018.089-.071.143 0-.125-.018-.196-.054-.196-.018-.036-.036-.071-.089-.089-.054 0-.089-.018-.107-.054-.018 0-.036-.018-.054-.054s-.036-.054-.071-.071a.137.137 0 0 1-.071.036c-.018.018-.071.036-.143.036-.054 0-.089 0-.107-.018l-.054.143c-.054.089-.071.143-.071.179a.13.13 0 0 1-.036.071l-.054.071c-.018.018-.071.036-.125.018-.071 0-.107.018-.107.036-.125-.036-.179-.107-.179-.214zm-.821-1.875a.455.455 0 0 0 .125-.054v.089c0 .018.036 0 .089-.018.036-.018.071-.018.089-.018l.107-.036.018.071c.018.018.036.018.054 0l.036-.036c0 .018 0 .036.018.036l-.036.036c-.054.018-.089.036-.143.036-.036 0-.071 0-.107.018-.054.018-.089.018-.089 0-.071 0-.196-.018-.125-.089.018-.018.018-.036-.036-.036zm1.017.571c0-.036.018-.036.036-.018s.054 0 .071-.054c.054 0 .071.054 0 .054v.071c.018 0 .036-.018.054-.036s.036-.018.054-.018l-.036.054c-.018.018 0 .036.018.054.054.054.071.089.054.107.071 0 .107.054.089.179.018 0 .036-.018.036-.054l.036.036c0 .018-.018.018-.036.018-.018.054-.036.071-.089.071h-.125c-.018-.036-.054-.054-.071-.036-.054.018-.054 0-.036-.036.018-.018.018-.036.018-.071h.071c.018 0 .036 0 .036-.018l-.036-.018c0-.089-.036-.125-.107-.125 0-.018 0-.036-.018-.054s-.036-.054-.018-.107zm-.214.411c-.018-.018-.018-.071 0-.125-.036-.018-.036-.018.018-.036.054 0 .071-.018.071-.036-.018 0-.036-.018-.036-.054.018-.018.018-.018.036 0 0 .018.036.018.107 0v.071c-.036.125-.107.179-.196.179zm.25.089h.054c-.018.018-.036.018-.054 0zm2.929.429c-.018.054-.018.089.018.089 0 .036.018.071.054.089.054.054.054.125.036.25-.018.036.018.071.089.089.018.089.143.125.196.036-.054 0-.071-.018-.054-.071.018-.089 0-.107-.018-.125-.018 0-.018-.018-.018-.036s.018-.018.036-.018c.018.018.036.018.071.018l-.018-.036c-.018-.018-.018-.018-.018-.036a.137.137 0 0 1-.036-.071c-.018 0-.036 0-.054.018s-.036.018-.036-.018v-.054c-.054 0-.161-.161-.036-.161 0 0 .036 0 .107-.018.018-.018.018-.018 0-.018a.137.137 0 0 1-.036-.089c-.018-.054-.089-.054-.179.036a.137.137 0 0 1-.089.036c0 .018 0 .054-.018.089zm-1.107.196c.036 0 .036.018.018.054.268 0 .393-.018.393-.054.018 0 .036.018.054.054 0 0 0-.018.018-.036.018 0 .054.018.071.054.018.054.089.054.196 0 .054-.036.054-.054 0-.054.018-.071 0-.107-.054-.125-.071-.018-.107-.054-.125-.089-.018 0-.036 0-.054-.018s-.036-.018-.054-.018c-.054 0-.089.018-.107.036s-.036.018-.036.018-.036-.018-.018-.036c0-.018-.018-.036-.054-.036.018-.071-.036-.107-.125-.107a.567.567 0 0 1-.089.179c-.036.054-.054.125-.036.179zm-4.358-.285l.071-.054c0 .036-.018.054-.071.054zm3.25.303l-.036-.071c.036 0 .054 0 .054-.018.018.018.036.018.018.036zm-.035.161v-.089c-.018-.018-.018-.036.018-.036l.018.036c.018 0 .018-.018.018-.054.071 0 .018.161-.054.143zm.232.125c.018-.018.036-.018.071 0s.054.018.054 0l.036-.036c0 .071 0 .089-.054.071s-.089-.036-.107-.036zM8.786 8.25c0-.036.018-.054.036-.054l-.036-.179c-.018-.018-.018-.054.018-.071.018-.018.018-.036.018-.054 0-.107.018-.214.071-.304l.054-.125c.018-.054.036-.071.054-.054s.036 0 .054-.018c.054-.036.143-.196.125-.214 0-.036 0-.054.018-.071s.018-.036.018-.054l.018-.036.054-.071c.018.018.054.018.089-.036.018-.018.036-.036.054-.036a.099.099 0 0 1 .089-.054c0 .018.018.018.071 0 .036-.018.071-.018.089-.018.018-.089.089-.125.214-.125 0-.036.054-.036.161-.018l.196.036v-.036c.071.018.179.286.179.357h.125c0 .054.054.071.161.071.071.018.268-.018.268-.089.089 0 .107.036.089.089.018.018.107.018.232.018.054.018.107.018.143.036.018.018.036.018.018.036.018 0 .036.018.054.036.018.036.036.054.054.054-.018.054.054.214.107.214 0 .089.036.143.089.179a.459.459 0 0 0 .179.286c-.018.018-.018.054.018.071l.054.107c.018.018.018.036.018.054s0 .036.018.036c0 .071.125.321.196.321.018.018.018.036 0 .036 0 .018.036.018.089.018.018 0 .036 0 .036-.018.054 0 .125-.018.25-.036 0 .054-.018.089-.036.143a.138.138 0 0 0-.036.143c-.054 0-.054.018-.036.036v.054l-.089.089c0 .036-.018.071-.054.107-.036.018-.071.054-.107.089a.977.977 0 0 0-.161.196c-.161.125-.214.196-.161.214 0 .054 0 .125-.018.214-.018.125 0 .179.036.179l.036.179c.018.089.018.143 0 .143 0 .036-.018.071-.036.125s-.036.089-.036.107c-.018.018-.018.018-.036.018l-.036.036c-.018 0-.036.018-.054.054-.018.054-.036.071-.054.071 0 .071 0 .125-.018.161s-.018.089-.018.179l-.071.232c-.161.125-.232.214-.232.268-.018.054-.036.071-.054.089l-.071.107c-.196 0-.304.018-.304.054-.054 0-.089 0-.125.018-.089.054-.107.018-.161-.214-.018 0-.018-.018-.018-.071 0-.036-.018-.054-.036-.054l-.018-.071-.107-.25c-.018-.018-.018-.036-.018-.054-.018 0-.018 0-.018-.018v-.054c-.018-.018-.018-.036-.018-.071s-.018-.089-.036-.161c-.071-.125-.071-.125-.089-.286a.594.594 0 0 1 .018-.304.673.673 0 0 0 .036-.375c0-.018 0-.036-.018-.071s-.018-.071-.018-.089c-.054 0-.071-.036-.071-.107-.054-.018-.089-.089-.089-.214.036-.036.054-.143.054-.321-.018-.018-.054-.018-.071-.036L10.143 9c-.018.018-.054.018-.125.018-.018-.071-.107-.089-.232-.071-.089.018-.196.018-.304.018 0 .018-.018.036-.054.018-.089 0-.179-.018-.232-.071-.054 0-.196-.143-.196-.196-.125-.125-.179-.232-.179-.357-.018-.018-.036-.054-.036-.107zm-3.161-.554h.036c.018.018.018.036.036.018h.018c0 .018-.018.036-.054.036s-.054-.018-.036-.054zm.179.018c.071 0 .107 0 .125-.018.054 0 .089.018.107.036a.099.099 0 0 0 .089.054l.054.054c.018.018.018.036-.036.054-.089 0-.143-.036-.179-.089-.054 0-.107-.036-.161-.089zM6.196 8h.071c.018.018.036.018.054 0a.13.13 0 0 0-.036-.071c.054 0 .089 0 .107.018s.036.018.071.018v-.054a.161.161 0 0 1 .107.107C6.534 8 6.499 8 6.463 8h-.125c0 .018-.018.036-.054.036S6.213 8.018 6.195 8zm-.232-.018c.054.018.071.036.071.054L6.071 8c.018 0 .018.018.018.036h-.107c-.036 0-.036-.018-.018-.054zm.732 0c.018 0 .036.018.036.036-.054 0-.054-.018-.036-.036zm-.053.036V8c.018 0 .036 0 .036.018h-.036zm-.25.428c.018-.018.018-.018.018-.036h.018a.039.039 0 0 1-.036.036zm5.786 2.447c0-.179.018-.304.036-.375l.054.054c.018 0 .018-.018.036-.054-.036 0-.054 0-.054-.018s0-.036.018-.054c.125.036.179.018.179-.036-.054-.018-.054-.054-.018-.089l.036.036c.054 0 .071-.018.054-.071-.018-.036-.018-.071 0-.089 0 .089.018.161.054.196.036.018.036.036 0 .054-.054.018-.071.071-.071.161h-.036a.33.33 0 0 1-.036.125c-.018.036-.018.071-.018.125-.018 0-.036.018-.018.071 0 .125-.018.196-.071.25-.125.018-.143-.089-.143-.286zm.321-.661l-.036.054c0-.018.018-.036.036-.054z"/></svg>