<svg xmlns="http://www.w3.org/2000/svg" width="16" height="16"><path d="M2.38 5.85l6.692 6.815c-.344.05-.696.085-1.072.085-4.279 0-6.404-3.465-6.933-4.476a.59.59 0 0 1 0-.548A9.47 9.47 0 0 1 2.38 5.85zm12.5 8.015c.16.16.16.42 0 .58l-.435.435a.41.41 0 0 1-.58 0l-2.806-2.806-.026.014-1.313-1.337.008-.007L1.12 2.135a.41.41 0 0 1 0-.58l.435-.435a.41.41 0 0 1 .58 0L4.94 3.925A7.104 7.104 0 0 1 8 3.25c4.279 0 6.404 3.465 6.933 4.476a.59.59 0 0 1 0 .548c-.304.58-1.146 1.96-2.608 3.036l2.555 2.555zM6.276 5.261l.875.875c.262-.126.544-.215.853-.215 1.127 0 2.041.93 2.041 2.078 0 .302-.081.577-.195.835l.87.87A3.245 3.245 0 0 0 11.211 8c0-1.804-1.435-3.266-3.207-3.266-.639 0-1.23.198-1.728.527z"/></svg>