<svg width="16" height="16" viewBox="0 0 756 841" xmlns="http://www.w3.org/2000/svg"><path d="M728.702 399.29c-18.61-32.032-44.786-57.712-77.512-77.045-24.456-14.244-49.816-23.284-78.393-27.167V193.295c28.577-12.14 46.312-39.009 46.312-70.355 0-42.726-34.246-77.35-76.918-77.35-42.705 0-77.552 34.624-77.552 77.35 0 31.346 16.712 58.216 45.289 70.355v101.829c-22.862 3.305-46.57 10.435-68.22 21.391-44.22-33.6-189.219-143.828-274.041-208.208 2.012-7.256 3.56-14.736 3.56-22.627C171.228 38.357 132.924 0 85.606 0S0 38.357 0 85.68c0 47.318 38.327 85.686 85.645 85.686 16.14 0 31.07-4.723 43.952-12.488l17.9 13.586 245.968 177.308c-13.002 11.945-25.113 25.531-34.8 40.776-19.633 31.078-31.63 65.272-31.63 102.571v7.783c0 26.183 4.973 50.902 13.443 74.124 7.458 20.276 18.363 38.711 31.869 55.38l-81.633 81.872c-24.163-8.998-51.352-3.032-69.534 15.256a65.769 65.769 0 0 0-19.364 46.831c.006 17.686 6.893 34.309 19.399 46.814a65.711 65.711 0 0 0 46.797 19.408 65.768 65.768 0 0 0 46.815-19.408 65.854 65.854 0 0 0 19.375-46.814 66.367 66.367 0 0 0-3.046-19.87l84.376-84.428c11.568 7.993 24.062 14.724 37.493 20.528 26.491 11.459 55.731 18.44 87.732 18.44h5.864c35.378 0 68.75-8.314 100.122-25.32 33.058-17.971 58.932-42.548 78.478-73.923 19.65-31.461 30.47-66.222 30.47-104.465v-1.91c0-37.619-8.705-72.328-26.989-104.126zM625.608 576.399c-22.902 25.463-49.227 41.148-78.987 41.148h-4.904c-16.998 0-33.624-4.7-49.901-13.25-18.347-9.411-32.292-22.837-43.706-39.837-11.796-16.686-18.198-34.904-18.198-54.22v-5.866c0-18.99 3.641-36.997 12.82-54.002 9.813-18.59 23.067-33.045 40.694-44.539 17.306-11.413 35.79-17.011 56.376-17.011h1.915c18.667 0 36.339 3.682 53.016 12.22 16.992 9.103 30.875 21.54 41.637 37.9 10.453 16.364 16.672 34.016 18.672 53.246.314 3.997.474 8.091.474 12.003 0 26.097-9.967 50.268-29.908 72.208z"/></svg>