<svg width="16" height="16" viewBox="0 0 16 16">
  <path fill-rule="evenodd" clip-rule="evenodd" d="M8.11597 13.9116C11.4515 13.3772 14 10.4861 14 7C14 3.13403 10.866 0 7 0C3.13403 0 0 3.13403 0 7C0 10.4868 2.54944 13.3782 5.88599 13.9119V7.66089H3.37805C3.198 7.66089 3.078 7.5979 3.02002 7.49512C3.02002 7.45288 3.02002 7.41211 3 7.39111C3 7.30908 3.04004 7.2041 3.12 7.10107L6.54199 2.86304C6.62512 2.7627 6.72742 2.69214 6.84155 2.65796C6.89221 2.64282 6.94519 2.63501 7 2.63501C7.16003 2.63501 7.31995 2.71802 7.45801 2.86304L10.8621 7.1001C11.1219 7.41211 11.002 7.65991 10.624 7.65991H8.11597V13.9116Z" />
</svg>
