<svg xmlns="http://www.w3.org/2000/svg" width="16" height="16" viewBox="0 0 16 16"><path d="M9.018 1.143c.643.196 1.25.536 1.714 1.018A4.158 4.158 0 0 1 12 4.929v.393c-.089.536-.232 1.054-.482 1.518-.036.036-1.607 1.536-1.607 3.179l-.089.482c-.107.321-.25.482-.536.482H6.518c-.286 0-.446-.161-.5-.482l-.089-.482C5.929 8.376 4.5 6.84 4.5 6.84a3.725 3.725 0 0 1-.446-1.518l-.036-.393c0-1.054.375-2.036 1.143-2.768C5.965 1.429 6.929 1 7.982 1c.411 0 .661.054 1.036.143zM6.375 12h3.304v1H6.375v-1zM7 14h1.982v.464H7V14z"/></svg>