<svg xmlns="http://www.w3.org/2000/svg" width="16" height="16" viewBox="0 0 16 16"><path d="M8 0c4.429 0 8 3.571 8 8s-3.571 8-8 8-8-3.571-8-8 3.571-8 8-8zm-.464 5.786V3.982c-3.054.196-3.554 2.232-3.571 4.446v3.036c0 .304.214.536.482.536h2.589c.268 0 .5-.232.5-.536V8.535a.503.503 0 0 0-.5-.518h-.911c0-1.518.393-2.232 1.411-2.232zm4.518 0V3.982C9 4.178 8.5 6.214 8.465 8.428v3.036c0 .304.482.536.75.536h2.589c.268 0 .25-.232.25-.536V8.535a.503.503 0 0 0-.5-.518h-.911c0-1.518.393-2.232 1.411-2.232z"/></svg>