<svg xmlns="http://www.w3.org/2000/svg" width="16" height="16" viewBox="0 0 16 16"><path d="M1.071 11.5V4.482c0-.429.339-.75.75-.75H14.16c.429 0 .768.321.768.75V11.5c0 .411-.357.75-.768.75H1.821a.754.754 0 0 1-.75-.75zm.733-7.018V11.5c0 .018 0 .018.018.018h12.339c.018 0 .036 0 .036-.018V4.482a.039.039 0 0 0-.036-.036H1.822zm2.446.875v1.161H3.071V5.357H4.25zm2.161 0v1.161H5.25V5.357h1.161zm2.196 0v1.161H7.428V5.357h1.179zm2.161 0v1.161H9.589V5.357h1.179zm2.178 0v1.161h-1.179V5.357h1.179zM5.375 7.429V8.59H4.214V7.429h1.161zm2.161 0V8.59H6.375V7.429h1.161zm2.178 0V8.59H8.553V7.429h1.161zm2.179 0V8.59h-1.161V7.429h1.161zM10.768 9.5v1.143H5.25V9.5h5.518z"/></svg>