<svg width="16" height="16" viewBox="0 0 16 16" xmlns="http://www.w3.org/2000/svg"><path d="M12.97 9.847a1.834 1.834 0 1 0-3.668 0 1.834 1.834 0 0 0 3.668 0zm1.418 5.156l-1.392-.354-.67 1.316-1.19-2.549-1.191 2.549-.67-1.316-1.392.354 1.414-3.03c-.216-.101-.457-.18-.589-.362-.177-.242-.116-.615-.211-.906-.091-.282-.362-.546-.362-.858 0-.312.271-.576.362-.857.094-.292.034-.665.211-.907.178-.245.552-.302.797-.48.243-.177.412-.516.703-.611.281-.091.616.081.928.081.311 0 .646-.172.927-.081.292.095.461.434.703.611.245.178.62.235.798.48.177.242.116.615.211.907.091.281.362.546.362.857 0 .312-.271.576-.362.858-.095.291-.035.664-.211.906-.133.183-.374.261-.589.362l1.413 3.03zM4 .018L2 2h2V.018zM7.714 13H2V3h3V0h7.039v5.99c-.054-.006-.103-.025-.158-.025a2.64 2.64 0 0 0-.576.076c-.058.012-.116.029-.174.032-.048-.003-.106-.02-.165-.032a2.63 2.63 0 0 0-.575-.076c-.172 0-.337.026-.491.076-.436.142-.703.441-.88.64-.037.041-.071.085-.111.119-.031.018-.084.038-.137.061-.241.106-.606.267-.873.633-.265.365-.306.761-.333 1.023-.006.058-.008.116-.022.17-.014.03-.044.074-.071.121-.135.23-.338.577-.338 1.039 0 .462.203.809.338 1.039.027.047.057.092.077.138.008.037.01.096.016.153.027.262.068.658.333 1.022.038.053.079.102.121.146L7.714 13z"/></svg>