<svg xmlns="http://www.w3.org/2000/svg" width="16" height="16" viewBox="0 0 16 16"><path d="M1.339 5.911a3.6 3.6 0 0 1 .089-.679c.125-.518.375-.946.732-1.286l1.018-1.018c.554-.554 1.196-.821 1.964-.821.714 0 1.357.268 1.946.821l2.518 2.518c.411.411.661.893.75 1.464.036.161.054.321.054.482 0 .196-.018.375-.054.554-.018.018-.018.054-.018.089 0 .018 0 .036-.018.054s-.018.036-.018.054a5.958 5.958 0 0 1-.214.554c-.018.018-.036.071-.089.161l-.036.036c-.018.054-.036.107-.071.125l-.018.018c0 .018 0 .018-.018.036s-.036.036-.036.054l-.071.071c0 .018 0 .018-.018.018-.018.018-.054.071-.125.143l-.446.446-.071-.054-.911-.929c-.036-.036-.054-.071-.071-.089v-.071c-.018-.018-.018-.036-.018-.054l.375-.375.054-.071c.018-.018.036-.054.089-.089v-.018l.036-.054.036-.071.018-.018c.018-.018.018-.036.018-.054s0-.036.018-.054l.018-.018V7.75c.036-.107.054-.232.054-.357 0-.339-.107-.607-.339-.839l-2.5-2.5a1.105 1.105 0 0 0-.821-.339c-.339 0-.625.107-.857.339L3.27 5.072a1.204 1.204 0 0 0-.321.839v.161c0 .036.018.089.036.161.071.214.161.393.286.518l1.571 1.554v.268c0 .232.018.446.054.661.125.679.429 1.286.929 1.821a2.963 2.963 0 0 1-1.125-.643L2.164 7.876a2.814 2.814 0 0 1-.482-.625v-.018c-.018 0-.018 0-.018-.018l-.018-.018v-.018c-.196-.429-.304-.857-.304-1.268zm4.268 2.696c0-.196.018-.375.054-.554a.947.947 0 0 0 .054-.196c.054-.196.125-.375.214-.536v-.018l.054-.071a.13.13 0 0 1 .036-.071c0-.018 0-.018.018-.018v-.018L6.126 7c.018-.018.018-.018.018-.036l.054-.054.054-.071v-.018c.018 0 .018 0 .018-.018l.143-.161.464-.446.054.071.946.946c0 .018 0 .036.018.054l.036.125-.393.393c-.054.054-.089.107-.107.125l-.018.018v.018a.349.349 0 0 0-.071.107v.018c-.018.018-.018.018-.018.036a.295.295 0 0 0-.054.107v.036c-.036.125-.054.25-.054.357 0 .339.107.625.321.839l2.518 2.518c.232.232.5.339.821.339.339 0 .625-.107.857-.339l1-1.036c.232-.232.339-.5.339-.821 0-.339-.107-.607-.339-.839l-1.554-1.571c.018-.036.018-.125.018-.268a3.2 3.2 0 0 0-.071-.625 3.608 3.608 0 0 0-.929-1.857c.411.125.786.339 1.143.661l2.536 2.536c.214.232.375.429.464.625l.018.018v.018l.018.018c.196.429.304.857.304 1.286 0 .161-.036.375-.089.679a3.062 3.062 0 0 1-.714 1.286l-1.036 1c-.554.554-1.196.821-1.964.821-.786 0-1.429-.268-1.946-.821l-2.518-2.5a2.716 2.716 0 0 1-.768-1.464c-.018-.214-.036-.375-.036-.5z"/></svg>