<svg xmlns="http://www.w3.org/2000/svg" width="16" height="16" viewBox="0 0 16 16"><path d="M4.304 4.964c0-1.982 1.661-3.643 3.643-3.643h.143c.982 0 1.839.357 2.571 1.071.696.732 1.054 1.589 1.054 2.571 0 .446-.196 1.232-.571 2.357-.643 1.768-1.464 3.75-3.125 7.357-.786-1.661-1.411-3.036-1.857-4.125-1.018-2.286-1.857-4.679-1.857-5.589zm2.517.84c.339.339.732.5 1.196.5a1.67 1.67 0 0 0 1.661-1.661c0-.446-.161-.857-.482-1.196a1.72 1.72 0 0 0-1.179-.464c-.929 0-1.679.714-1.679 1.661 0 .482.161.857.482 1.161z"/></svg>