<svg xmlns="http://www.w3.org/2000/svg" width="16" height="16" viewBox="0 0 16 16"><path d="M3.071 1H1.303c-.161 0-.304.179-.304.304v8.125c0 .179.143.321.304.321h1.768a.331.331 0 0 0 .321-.321V1.304c0-.125-.143-.304-.321-.304zm11.125 3.929c.125-.232.179-.446.179-.679 0-.625-.375-1.179-1-1.393.071-.179.071-.304.071-.554 0-.696-.625-1.304-1.321-1.304h-3c-.482 0-1.25.143-1.625.375L4.482 2.767v6.107c3.464 2.321 4.089 3.571 4.089 5.268 0 .482.375.857.857.857.304 0 .696-.232.929-.625.321-.446.464-1.071.464-1.768 0-1.089-.554-2.482-.554-2.482v-.321c.089-.071.179-.125.232-.125h3.018c.714 0 1.304-.625 1.304-1.357 0-.446-.268-.893-.679-1.143.411-.232.679-.696.679-1.161.179-.393-.125-.839-.625-1.089z"/></svg>