<svg xmlns="http://www.w3.org/2000/svg" width="16" height="16" viewBox="0 0 16 16"><path d="M14.196 11.054c.5-.232.804-.679.625-1.071a1.42 1.42 0 0 0-.679-1.179c.411-.232.679-.679.679-1.125 0-.732-.589-1.357-1.304-1.357h-3.018c-.054 0-.143-.054-.232-.143v-.304s.554-1.393.554-2.482c0-.696-.143-1.321-.464-1.768C10.125 1.232 9.732 1 9.428 1a.846.846 0 0 0-.857.857c0 1.696-.625 2.946-4.089 5.268v6.107L7.5 14.625c.375.232 1.143.375 1.625.375h3c.696 0 1.321-.607 1.321-1.321 0-.232 0-.375-.071-.536.625-.214 1-.768 1-1.393 0-.232-.054-.446-.179-.696zM1.304 15h1.768c.179 0 .321-.179.321-.304V6.553c0-.161-.161-.304-.321-.304H1.304A.313.313 0 0 0 1 6.553v8.143c0 .125.143.304.304.304z"/></svg>