<svg xmlns="http://www.w3.org/2000/svg" width="16" height="16"><path fill="#888" d="M15.183 3.21h-1.54c-.376 0-.753.284-.837.631l-1.987 8.087c1.06.309 1.94.65 2.661.99l2.23-9.077c.084-.347-.153-.63-.527-.63M10.99 5.739H9.45c-.376 0-.752.285-.836.632l-1.186 4.825c1.025.156 1.945.347 2.766.56l1.323-5.385c.085-.347-.152-.632-.527-.632M3.134 8.863H1.593c-.374 0-.751.284-.836.63l-.329 1.338c.24-.018.487-.03.75-.033a48.59 48.59 0 0 1 2.155.027l.328-1.331c.084-.347-.153-.63-.527-.63m4.029-1.68H5.622c-.375 0-.752.285-.837.632l-.747 3.042a36.39 36.39 0 0 1 2.84.26l.811-3.302c.086-.347-.152-.631-.526-.631"/></svg>