<svg xmlns="http://www.w3.org/2000/svg" width="16" height="16" viewBox="0 0 16 16"><path d="M0 7.357v.554c.143 1.804 1.607 1.732 1.607 1.732h.554l2.089 3.464c.196.232.571.464.911.286l1.25-.661-1.768-3.089h.661c2.286 0 3.143 1.25 4.143 2.357l.143.161c.214.25.589.696.946.696.518-.054.464-.286.464-.536V2.964c0-.268-.018-.536-.5-.536-.429 0-.607.339-.821.589-.964 1.214-1.893 2.732-4.375 2.732h-3.75C.911 5.749.108 6.017 0 7.356zm14.607-3.125C15.5 5.125 16 6.339 16 7.625s-.5 2.5-1.411 3.411a.532.532 0 0 1-.357.143.577.577 0 0 1-.375-.143.518.518 0 0 1 0-.75c.714-.714 1.089-1.661 1.089-2.661s-.375-1.946-1.089-2.661a.498.498 0 0 1 0-.732c.196-.214.536-.196.75 0zm-5.107.75v5.357c-1.286-1.268-2.089-1.607-4-1.607V6.643c1.911 0 2.732-.339 4-1.661zm3.607.482c.571.571.893 1.339.893 2.161s-.321 1.589-.893 2.161a.514.514 0 0 1-.75 0 .53.53 0 0 1 0-.732c.375-.375.589-.893.589-1.429s-.214-1.036-.589-1.411c-.196-.214-.196-.554 0-.75a.552.552 0 0 1 .75 0zM3.268 7.339H1.643c-.143 0-.286-.143-.286-.286s.143-.268.286-.268H3.25c.143 0 .268.125.268.268s-.125.286-.25.286zm0 1.179H1.643c-.143 0-.286-.143-.286-.286s.143-.268.286-.268H3.25c.143 0 .268.125.268.268s-.125.286-.25.286z"/></svg>