<svg xmlns="http://www.w3.org/2000/svg" width="16" height="16" viewBox="0 0 16 16"><path d="M4.893 13.482V5.196A1.22 1.22 0 0 1 6.089 4h2.946V1.857c0-.214.304-.536.607-.536s.625.321.625.536v2.196c.5.125.857.589.857 1.143v8.286c0 .643-.536 1.196-1.196 1.196H6.089a1.22 1.22 0 0 1-1.196-1.196zm.982-7.678v2.054c0 .446.393.821.875.821h2.518c.482 0 .893-.375.893-.821V5.804c0-.446-.411-.804-.893-.804H6.75c-.482 0-.875.357-.875.804zm.036 4.553a.488.488 0 0 0 .339.143c.268 0 .482-.196.482-.464s-.214-.482-.482-.482-.482.214-.482.482c0 .125.054.232.143.321zm1.803 0a.488.488 0 0 0 .339.143c.268 0 .482-.196.482-.464s-.214-.482-.482-.482-.5.214-.5.482c0 .125.054.232.161.321zm1.732 0a.488.488 0 0 0 .339.143c.268 0 .5-.196.5-.464s-.232-.482-.5-.482-.482.214-.482.482c0 .125.054.232.143.321zM5.911 12a.48.48 0 0 0 .821-.339c0-.268-.214-.5-.482-.5s-.482.232-.482.5c0 .125.054.25.143.339zm1.803 0a.48.48 0 0 0 .821-.339c0-.268-.214-.5-.482-.5s-.5.232-.5.5c0 .125.054.25.161.339zm1.732 0a.488.488 0 0 0 .339.143c.268 0 .5-.214.5-.482s-.232-.5-.5-.5-.482.232-.482.5c0 .125.054.25.143.339zm-3.535 1.625a.44.44 0 0 0 .339.161c.268 0 .482-.232.482-.5s-.214-.482-.482-.482a.48.48 0 0 0-.339.821zm1.803 0a.44.44 0 0 0 .339.161c.268 0 .482-.232.482-.5s-.214-.482-.482-.482-.5.214-.5.482c0 .125.054.25.161.339zm1.732 0a.44.44 0 0 0 .339.161c.268 0 .5-.232.5-.5s-.232-.482-.5-.482a.48.48 0 0 0-.339.821z"/></svg>