<svg width="16" height="16" viewBox="0 0 16 16" xmlns="http://www.w3.org/2000/svg"><path d="M15.993 12.994H4.585s.286-3.242 4.567-3.958C8.453 8.319 7.88 7.477 7.88 6.08c0-.913.036-3.08 2.454-3.08 2.328 0 2.436 2.167 2.436 3.08 0 1.397-.592 2.293-1.272 2.956 4.388 1.02 4.549 3.868 4.495 3.958zM3.707 13H0s.698-2.245 3.42-2.944c-.519-.447-.913-.985-.913-2.006 0-.644.18-2.238 1.773-2.238 1.576 0 1.738 1.665 1.738 2.31 0 1.021-.448 1.415-.735 1.791-.752.663-1.164 1.361-1.36 1.863-.305.77-.216 1.224-.216 1.224z" fill-rule="evenodd"/></svg>