<svg xmlns="http://www.w3.org/2000/svg" width="16" height="16" viewBox="0 0 16 16"><path d="M15.625 1.071c.232.161.375.393.375.679v10.339c0 .232-.125.429-.268.589a.693.693 0 0 1-.464.196h-5.25c.089.589.268 1.143.5 1.429h.464c.107 0 .196.089.196.232v.214a.198.198 0 0 1-.196.196H7.964c.161-.196.232-.464.232-.732v-3.679h7.071v-8.75H.767v1.929c-.25 0-.482.054-.643.161-.071.036-.089.071-.125.071V1.749c0-.286.143-.518.375-.643A.757.757 0 0 1 .731.999h14.536c.125 0 .268.054.357.071zM7.268 4.375a.774.774 0 0 1 .375.643v9.196a.85.85 0 0 1-.25.589.68.68 0 0 1-.464.196H4.608a1.39 1.39 0 0 0 .232-.786v-.964h2.054V5.07H.769v1.964c-.25 0-.482.054-.643.179-.071 0-.089.018-.125.054V5.053c0-.286.143-.536.375-.643.089-.054.232-.125.357-.125h6.161c.143 0 .268.071.375.089zM3.911 7.714a.655.655 0 0 1 .375.607v5.875a.86.86 0 0 1-.25.607.675.675 0 0 1-.482.179H.768A.79.79 0 0 1 0 14.196V8.357c0-.304.143-.536.375-.643a.715.715 0 0 1 .393-.089h2.786c.125 0 .268.018.357.089zm-.375.661H.768v4.875h2.768V8.375zm-1.375 6.107c.196 0 .321-.179.321-.357 0-.161-.143-.339-.321-.339s-.357.179-.357.339a.37.37 0 0 0 .357.357z"/></svg>