<svg xmlns="http://www.w3.org/2000/svg" width="16" height="16" viewBox="0 0 16 16"><path d="M1.304 12.125v-.982c.018-.375.643-.857 1.196-1.071.143-.071.304-.161.482-.268.875-.5 1.857-.821 2.161-.875-.375-.375-.929-1.554-.929-2.643 0-.232 0-.429-.018-.589-.018-.214 0-.393.036-.554.25-.839.839-1.268 1.786-1.268.964 0 1.554.429 1.786 1.268.054.143.071.321.054.554-.018.161-.018.357-.018.589 0 1.089-.554 2.268-.929 2.643.054.018.179.036.232.036l.214.054v.929c0 .429.339.786.786.786h2.393c.018 0 .018 0 .018.018v1.375h-9.25zm10.053-3.643V6.303l3.357 2.929-3.357 2.893V9.946H8.143V8.482h3.214z"/></svg>