<svg width="16" height="16" viewBox="0 0 16 16" xmlns="http://www.w3.org/2000/svg"><path d="M8 16A8 8 0 1 0 8 0a8 8 0 0 0 0 16zm-2.337-5.45c-1.676.279-2.652.998-3.22 1.708a7 7 0 0 1 6.89-11.131v4.735a.333.333 0 0 0 .57.235l1.194-1.194a.333.333 0 0 1 .472 0l1.195 1.194a.333.333 0 0 0 .57-.235V3.466A6.973 6.973 0 0 1 15 8a6.995 6.995 0 0 1-3.335 5.965c.027-.304-.302-2.564-3.944-3.414.599-.562 1.113-1.353 1.113-2.549 0-.79-.095-2.669-2.141-2.669-2.106 0-2.143 1.879-2.143 2.669 0 1.196.503 1.938 1.113 2.548z" fill-rule="evenodd"/></svg>
