<svg xmlns="http://www.w3.org/2000/svg" width="16" height="16" viewBox="0 0 16 16"><path d="M1.339 4.179v-.232a.839.839 0 0 1 .25-.518l2.018-2c.071-.054.125-.089.179-.089s.107.054.161.143l1.625 3.036a.471.471 0 0 1 .054.214c0 .125-.054.214-.143.304l-.732.732a.714.714 0 0 0-.214.518c.125.929 1 2.125 2.018 3.143s2.286 1.964 3.161 2.054c.196 0 .357-.071.518-.232l.875-.857c.161-.161.321-.179.5-.071l2.929 1.732c.089.054.143.107.143.179 0 .054-.036.125-.089.179l-2 2a.838.838 0 0 1-.536.25h-.232c-1 0-2.446-.446-3.946-1.393-1.929-1.214-3.911-3.214-5.125-5.125-1-1.571-1.411-2.946-1.411-3.964z"/></svg>