<svg xmlns="http://www.w3.org/2000/svg" width="16" height="16" viewBox="0 0 16 16"><path d="M13.833 13H2.167A1.162 1.162 0 0 1 1 11.842V3.158C1 2.518 1.522 2 2.167 2h11.666C14.478 2 15 2.518 15 3.158v8.684c0 .64-.522 1.158-1.167 1.158zM2.4 3a.4.4 0 0 0-.4.4v8.2c0 .22.18.4.4.4h11.2a.4.4 0 0 0 .4-.4V3.4a.4.4 0 0 0-.4-.4H2.4zm7.625 2.005a1 1 0 1 1 2 0 1 1 0 0 1-2 0zm4.49 6.495a.503.503 0 0 1-.311-.106l-3.305-2.601-1.31 1.03.41.365a.43.43 0 0 1 .014.64.51.51 0 0 1-.684.014L5.68 7.594l-3.845 3.765a.509.509 0 0 1-.686.015.432.432 0 0 1-.016-.638l4.18-4.093a.497.497 0 0 1 .34-.141.445.445 0 0 1 .345.124l2.886 2.57 1.703-1.34a.51.51 0 0 1 .624 0l3.617 2.847c.204.16.23.446.058.636a.5.5 0 0 1-.37.161z"/></svg>