<svg xmlns="http://www.w3.org/2000/svg" width="16" height="16" viewBox="0 0 16 16"><path d="M2.393 10.5a.727.727 0 0 1 0 .911.857.857 0 0 1-.464.161c-.214 0-.375-.054-.482-.161A4.617 4.617 0 0 1 .001 8.054c0-1.232.482-2.464 1.5-3.375.214-.268.625-.268.893 0s.268.643 0 .911c-.679.696-1.054 1.554-1.054 2.464.054.893.375 1.75 1.054 2.446zm12.161-5.821A4.627 4.627 0 0 1 16 8.054a4.617 4.617 0 0 1-1.446 3.357.865.865 0 0 1-.482.161.855.855 0 0 1-.464-.161.617.617 0 0 1 0-.911 3.291 3.291 0 0 0 1.054-2.446c0-.911-.375-1.768-1.054-2.464-.268-.268-.268-.643 0-.911s.679-.268.946 0zm-3.036 1.285a.678.678 0 0 1 .964 0c.589.589.911 1.339.911 2.089 0 .732-.321 1.482-.911 2.071-.161.161-.321.214-.482.214s-.321-.107-.482-.214c-.268-.214-.268-.643 0-.911a1.665 1.665 0 0 0 0-2.34c-.268-.214-.268-.643 0-.911zM4 10.339c-.161 0-.321-.107-.482-.214a2.906 2.906 0 0 1-.857-2.071c0-.75.321-1.5.857-2.089a.804.804 0 0 1 .964 0c.268.268.268.696 0 .911a1.663 1.663 0 0 0 0 2.34.617.617 0 0 1 0 .911c-.107.161-.321.214-.482.214zm4-.357c-1.143 0-2-.857-2-1.911 0-1.089.857-1.946 2-1.946 1.089 0 2 .857 2 1.946 0 1.054-.911 1.911-2 1.911z"/></svg>