<svg xmlns="http://www.w3.org/2000/svg" width="16" height="16" viewBox="0 0 16 16"><path d="M12.132 5.893l-.166.189-.176-.18-2.038-2.087-.156-.161.153-.163.71-.75.167-.177.169.174 1.063 1.091L14.612.725A3.468 3.468 0 0 0 12.5 0 3.5 3.5 0 1 0 16 3.5c0-.564-.146-1.09-.383-1.562l-3.485 3.955zM13.84 16H0s.349-3.912 5.536-4.774c-.845-.845-1.542-1.873-1.542-3.53C3.994 6.602 4.045 4 6.962 4c.215 0 .409.019.594.047a4.976 4.976 0 0 0 2.369 3.716c-.02 1.618-.72 2.696-1.538 3.464 5.321 1.243 5.536 4.657 5.453 4.773z"/></svg>