<svg xmlns="http://www.w3.org/2000/svg" width="16" height="16" viewBox="0 0 16 16"><path d="M9.393 6.696c1 0 1.714.911 1.714 2.107 0 1.5-1 2.196-1.911 2.196-.5 0-.893-.196-1.196-.696l-.107.589H6.804V4.999h1.393v2.304c.196-.411.607-.607 1.196-.607zm-5-1.392l1.714 5.589H4.696L4.303 9.5H2.696l-.393 1.393H.999l1.696-5.589h1.696zM4.196 8.5l-.393-1.196c-.107-.304-.196-.696-.304-1.107-.107.411-.196.804-.304 1.107L2.891 8.5h1.304zm9.911 1.482c.286 0 .5.018.589-.089l.196.911c-.196.089-.589.196-1.089.196-1.304 0-2.196-.804-2.196-2.107 0-1.196.893-2.196 2.393-2.196.393 0 .696.107 1 .196l-.196 1c-.107 0-.411-.089-.696-.089-.714 0-1.107.393-1.107 1.089 0 .714.5 1.089 1.107 1.089zM8.893 10c.5 0 .911-.393.911-1.196 0-.607-.304-1.107-.911-1.107-.286 0-.696.304-.696.696v1c0 .304.304.607.696.607z"/></svg>