<svg xmlns="http://www.w3.org/2000/svg" width="16" height="16" viewBox="0 0 16 16"><path d="M4.306 2.3c-1.123 0-3.005.389-3.005 2.99v.005c-.003.381.076.752.235 1.1a6.157 6.157 0 0 0 1.412 2.047L8 13.436l5.046-4.988c.32-.305.601-.635.845-.99.534-.815.808-1.549.808-2.167 0-2.471-1.634-2.99-3.004-2.99-1.085 0-2.18 1.304-2.836 2.083-.14.169-.268.32-.379.441a.707.707 0 0 1-.489.212.654.654 0 0 1-.483-.225 5.08 5.08 0 0 1-.23-.302C6.79 3.849 5.652 2.3 4.305 2.3M8 15.001a.647.647 0 0 1-.457-.189L2.04 9.373A7.412 7.412 0 0 1 .347 6.92 3.848 3.848 0 0 1 0 5.287h.001C.002 2.642 1.651 1 4.306 1c1.73 0 3.018 1.43 3.726 2.349.814-.959 2.086-2.347 3.663-2.347C14.35 1.002 16 2.645 16 5.291c0 .876-.347 1.848-1.029 2.891-.304.441-.644.84-1.019 1.199l-5.495 5.431a.645.645 0 0 1-.457.189"/></svg>