<svg xmlns="http://www.w3.org/2000/svg" width="16" height="16" viewBox="0 0 16 16"><path d="M8.217 13.004H0s.352-3.89 5.595-4.762c-.854-.854-1.558-1.829-1.558-3.504 0-1.106.051-3.738 3-3.738 2.864 0 2.998 2.626 2.998 3.732 0 1.674-.72 2.773-1.558 3.56.015.004.028-.008.043-.004-1.172.786-1.294 2.357-.348 3.303.405.405.418 1.413.045 1.413zm1.786-3.878l-.881.881a.416.416 0 0 0 0 .588l1.909 1.909-1.909 1.909a.416.416 0 0 0 0 .588l.881.881a.416.416 0 0 0 .588 0l1.909-1.909 1.909 1.909a.416.416 0 0 0 .588 0l.881-.881a.416.416 0 0 0 0-.588l-1.909-1.909 1.909-1.909a.416.416 0 0 0 0-.588l-.881-.881a.416.416 0 0 0-.588 0L12.5 11.035l-1.909-1.909a.415.415 0 0 0-.588 0z"/></svg>
