<svg xmlns="http://www.w3.org/2000/svg" width="16" height="16" viewBox="0 0 16 16"><path d="M0 15.893l3.589-1.232c1.25.839 2.786 1.304 4.411 1.304 4.518 0 8-3.589 8-8C16 3.572 12.429.036 8 .036c-4.411 0-8 3.536-8 7.929 0 1.571.464 3.018 1.214 4.268zm12.929-7.857c0 1.357-.589 2.625-1.679 3.625-.125.071-.286.161-.464.161s-.357-.089-.464-.161a.557.557 0 0 1 0-.857c.839-.714 1.304-1.696 1.304-2.768 0-1.054-.464-2.036-1.304-2.786-.268-.232-.268-.589 0-.821.25-.232.661-.232.929 0 1.089.964 1.679 2.232 1.679 3.607zm-6.125 3.446L5.25 9.857 2.982 9.5V6.518l2.268-.339 1.554-1.625h.179v6.929h-.179zm1.928-.678c-.179 0-.357-.054-.464-.161-.268-.232-.268-.589 0-.821 1.071-.946 1.071-2.482 0-3.446-.268-.232-.268-.571 0-.804.25-.232.661-.232.929 0 2.196 1.911.804 5.232-.464 5.232z"/></svg>