<svg xmlns="http://www.w3.org/2000/svg" width="16" height="16" viewBox="0 0 16 16"><path d="M0 15.893l3.589-1.232c1.25.839 2.786 1.304 4.411 1.304 4.518 0 8-3.589 8-8C16 3.572 12.429.036 8 .036c-4.411 0-8 3.536-8 7.929 0 1.571.464 3.018 1.214 4.268zm6.804-4.411L5.25 9.857 2.982 9.5V6.518l2.268-.339 1.554-1.625h.179v6.929h-.179zm4.857-3.518l1.786 1.804a.637.637 0 0 1 0 .875c-.107.107-.25.161-.411.161s-.304-.054-.429-.161l-1.821-1.839-1.804 1.839a.58.58 0 0 1-.429.161.63.63 0 0 1-.411-.161.637.637 0 0 1 0-.875l1.804-1.804-1.804-1.821a.593.593 0 1 1 .839-.839l1.804 1.804 1.821-1.804a.593.593 0 1 1 .839.839z"/></svg>