<svg width="16" height="16" xmlns="http://www.w3.org/2000/svg"><path d="M4.485 5.381l2.357-.587L5.04 9.017l-.19-.08a.44.44 0 0 0-.524.143l-.618.833-3.253-.19L2.678 6.61a3.16 3.16 0 0 1 1.807-1.229zm6.178 3.642l.543.135-.587 2.357a3.16 3.16 0 0 1-1.229 1.807l-3.113 2.223-.19-3.254.833-.617a.44.44 0 0 0 .143-.525l-.08-.189 3.68-1.937z"/><path fill-rule="evenodd" clip-rule="evenodd" d="M14.919 1.083C14.643.804 14.19.7 13.704.699c-.502-.001-1.103.105-1.749.314-1.292.419-2.801 1.263-4.099 2.56-1.702 1.702-2.805 3.636-3 5.133l-.018.137 2.32 2.319.136-.018c1.497-.195 3.43-1.298 5.133-3 1.297-1.298 2.14-2.805 2.557-4.097.21-.645.315-1.246.314-1.747-.001-.488-.104-.94-.38-1.217zm-4.72 1.908c-.325.325-.55.706-.644 1.071-.09.36-.063.757.21 1.03.274.274.672.302 1.03.21.366-.092.748-.318 1.072-.642.325-.325.55-.706.643-1.072.091-.359.063-.756-.21-1.03-.273-.273-.671-.301-1.03-.21-.365.093-.747.318-1.072.643z"/><path d="M4.37 10.3L3 11.73a3.11 3.11 0 0 0-.79 2.11 3.59 3.59 0 0 0 2.12-.78l1.37-1.42-1.33-1.34z"/></svg>