<svg xmlns="http://www.w3.org/2000/svg" width="16" height="16" viewBox="0 0 16 16"><path d="M10.482 5.518C12.643 7.697 14 10.697 14 14h-2.304A9.693 9.693 0 0 0 2 4.304V2c3.304 0 6.304 1.357 8.482 3.518zM2 8.375V6.089c2.179 0 4.161.875 5.589 2.321a7.826 7.826 0 0 1 2.321 5.589H7.624c0-1.339-.607-2.911-1.643-3.982a5.649 5.649 0 0 0-3.982-1.643zm1.607 2.429a1.581 1.581 0 0 1 1.589 1.589c0 .429-.179.821-.464 1.125-.286.286-.679.464-1.125.464s-.839-.179-1.143-.464A1.64 1.64 0 0 1 2 12.393c0-.446.179-.839.464-1.125a1.65 1.65 0 0 1 1.143-.464z"/></svg>