<svg xmlns="http://www.w3.org/2000/svg" width="16" height="16" viewBox="0 0 16 16"><path d="M8.875 7.643L8.5 8 7.339 9.286 6.178 10.59l-.839.929-.071.089c-.482.518-1.089.786-1.768.786H1.857c-.464 0-.821-.393-.821-.911 0-.482.357-.911.821-.911H3.5c.25 0 .482-.125.679-.339l1.679-1.839.321-.393L7.34 6.715l2.054-2.25c.482-.554 1.161-.857 1.821-.857h.375c.214 0 .357-.179.393-.429v-.911c0-.089.036-.179.089-.214.089-.036.161-.036.214 0l2.536 2.107a.499.499 0 0 1 .143.357c0 .125-.018.286-.143.375l-.036.036-1.393 1.161-1.071.875-.036.036c-.036.036-.054.036-.125.036-.089 0-.179-.125-.214-.25V5.93c.036-.25-.125-.464-.339-.482-.018-.036-.089-.036-.143 0h-.25a.851.851 0 0 0-.643.304zM1.893 5.446l-.036-.036a.812.812 0 0 1-.696-.429C1 4.677 1 4.338 1.161 4.07c.143-.286.429-.464.696-.464h1.607c.679 0 1.321.286 1.804.804l.089.089.821.946.036.018.089.107c.196.232.25.518.196.821a.943.943 0 0 1-.5.607.745.745 0 0 1-.875-.161l-.036-.054-.911-1.018c-.196-.196-.429-.321-.714-.321H1.892zm10.393 3.59l2.536 2.071c.089.071.143.214.179.339a.512.512 0 0 1-.143.375l-.071.054-2.464 2.054-.036.018c-.054.036-.143.036-.214 0-.054-.018-.089-.125-.089-.214v-.857c0-.232-.161-.446-.339-.482h-.482a2.616 2.616 0 0 1-1.768-.821l-.893-1h.036c-.036 0-.054-.036-.054-.036l-.071-.054c-.179-.214-.25-.536-.214-.839.071-.268.25-.518.5-.625a.772.772 0 0 1 .875.143l.054.089.946 1.018a.786.786 0 0 0 .625.304h.321c.214.018.429-.161.464-.411v-.929c0-.107.036-.161.089-.214.089-.036.161-.036.214.018z"/></svg>