<svg width="16" height="11" viewBox="0 0 16 11" xmlns="http://www.w3.org/2000/svg"><path d="M6.64 1.22A2.83 2.83 0 0 1 8.662.37c1.055 0 1.97.576 2.462 1.434a3.501 3.501 0 0 1 1.389-.288c1.899 0 3.44 1.526 3.44 3.41 0 1.882-1.541 3.409-3.44 3.409-.235 0-.457-.024-.68-.07a2.522 2.522 0 0 1-2.192 1.267 2.62 2.62 0 0 1-1.102-.247A2.873 2.873 0 0 1 5.902 11a2.863 2.863 0 0 1-2.69-1.843A2.653 2.653 0 0 1 .006 6.571c0-.979.533-1.831 1.33-2.292a2.963 2.963 0 0 1-.252-1.21c0-1.681 1.39-3.04 3.1-3.04.997 0 1.888.466 2.456 1.192z"/></svg>