<svg xmlns="http://www.w3.org/2000/svg" width="16" height="16" viewBox="0 0 16 16"><path d="M5.5 3c-.286 0-.5-.357-.5-.821v-.321c0-.464.214-.857.5-.857s.5.393.5.857v.321C6 2.643 5.786 3 5.5 3zm5.018-.018c-.286 0-.518-.339-.518-.804v-.321c0-.464.214-.857.5-.857s.5.393.5.857v.321c0 .464-.196.804-.482.804zM12 3l.018-1.018c.607 0 .982.429.982 1.018v10c0 .571-.393 1-1 1H4c-.607 0-1-.429-1-1V3c0-.571.393-1 1-1v1c0 .607.393 1 1 1h1c.607 0 1-.393 1-1V2h2v1c0 .607.393 1 1 1h1c.625-.018 1-.304 1-1zm.018 1.982L10 5v2l2.018-.018v-2zM6 5H4v2h2V5zm3 0H7v2h2V5zM6 8H4v2h2V8zm3 0H7v2h2V8zm3 0h-2v2h2V8zm-6 3H4v2h2v-2zm3 0H7v2h2v-2zm3 0h-2v2h2v-2z"/></svg>