<svg xmlns="http://www.w3.org/2000/svg" width="16" height="16" viewBox="0 0 16 16"><path d="M7.143 4.875V1.857c0-.304.268-.536.571-.536h.625c.304 0 .554.232.554.536v3.018h1.964c.304 0 .393.179.196.411L8.374 8.482c-.089.107-.214.161-.357.161s-.25-.054-.339-.161L4.982 5.286c-.196-.232-.107-.411.196-.411h1.964zm-.572 5.464L2.946 7.25c.089-.018.161-.036.214-.036h2.643l1.393 1.661c.232.268.5.393.821.393.304 0 .589-.125.821-.393l1.411-1.661h2.607c.036 0 .107.018.196.036l-3.625 3.089-.482.375-.929.786-.964-.786zm-4.089 3.679V7.875c0-.036.018-.107.036-.196l3.607 3.071-3.607 3.482zm7.393-3.268l3.607-3.071c.018.089.036.161.036.196v6.143l-.036.214zm-1.857 1.536l1.393-1.143 3.625 3.5-.179.036H3.161c-.036 0-.107-.018-.196-.036l3.643-3.5z"/></svg>