<svg xmlns="http://www.w3.org/2000/svg" width="16" height="16" viewBox="0 0 16 16"><path d="M1.339 8.75V7.214c0-.232.125-.375.357-.429l1.982-.375c.232-.071.286-.196.161-.357L2.696 4.357c-.143-.179-.125-.357.054-.536l1.089-1.089c.143-.143.411-.179.571-.054l1.679 1.125c.179.125.304.089.357-.143l.375-2c.054-.232.196-.339.429-.339h1.554c.214 0 .357.107.411.339l.375 2c.054.232.179.268.357.143l1.696-1.125c.179-.143.357-.125.536.054l1.107 1.089a.409.409 0 0 1 .054.536l-1.143 1.696c-.125.179-.089.304.143.357l2 .375c.232.054.339.196.339.429V8.75c0 .232-.107.393-.339.446l-2 .357c-.232.054-.268.179-.143.357l1.143 1.696c.143.196.125.375-.054.554l-1.107 1.107c-.196.161-.375.179-.536.054L9.947 12.16c-.179-.125-.304-.089-.357.143l-.375 2.018c-.054.232-.196.357-.411.357H7.25c-.232 0-.375-.125-.429-.357l-.375-2c-.071-.232-.196-.286-.357-.161L4.41 13.321c-.179.143-.375.125-.571-.054L2.75 12.16c-.161-.196-.179-.375-.054-.554L3.839 9.91c.125-.161.071-.286-.161-.357l-1.982-.357c-.196-.054-.357-.25-.357-.446zM5.607 8c0 1.339 1.054 2.393 2.411 2.393S10.429 9.339 10.429 8c0-1.357-1.054-2.411-2.411-2.411S5.607 6.643 5.607 8z"/></svg>