<svg xmlns="http://www.w3.org/2000/svg" width="16" height="16" viewBox="0 0 16 16"><path d="M9.625 10.446s.357-.107.696-.107c1.286 0 2.321 1.054 2.321 2.339s-1.036 2.321-2.321 2.321-2.339-1.036-2.339-2.321c0-.321.107-.625.107-.625a.55.55 0 0 0-.125-.464l-1.232-1.25a.49.49 0 0 0-.464-.107s-.286.071-.589.071c-1.286 0-2.321-1.036-2.321-2.321s1.036-2.321 2.321-2.321c.321 0 .661.107.661.107.143.036.357 0 .464-.107l1.179-1.214a.535.535 0 0 0 .125-.464s-.125-.321-.125-.661c0-1.286 1.054-2.321 2.339-2.321s2.321 1.036 2.321 2.321-1.036 2.339-2.321 2.339c-.321 0-.625-.107-.625-.107a.55.55 0 0 0-.464.125L8.019 6.893a.49.49 0 0 0-.107.464s.089.304.089.625c0 .339-.107.696-.107.696a.49.49 0 0 0 .107.464l1.196 1.196a.494.494 0 0 0 .429.107z"/></svg>