<svg xmlns="http://www.w3.org/2000/svg" width="16" height="16"><path d="M1.321 6.75c0-.518.536-.661.839-.661h3.75a.278.278 0 0 0 .268-.161c0-.018 0-.018.018-.036s.018-.018.018-.036l1.089-3.893.071-.179c.036-.125.125-.25.268-.375a.677.677 0 0 1 .339-.089c.25 0 .429.089.536.286a.369.369 0 0 1 .107.179l.054.179 1.089 3.893c.054.125.161.232.304.232h3.75c.054 0 .161.018.321.036.357.161.536.339.536.607 0 .107-.036.214-.089.304s-.143.25-.375.411l-3 1.982c-.089.036-.143.125-.143.268 0 .018 0 .036.018.036v.036l1.321 3.875a.822.822 0 0 1 .071.375c0 .339-.25.661-.607.661h-.018a.96.96 0 0 1-.571-.25L8.16 11.894c-.018-.018-.071-.036-.143-.036-.089 0-.143.018-.161.036L4.91 14.412a.971.971 0 0 1-.607.25h-.071c-.304 0-.554-.321-.554-.661 0-.107.018-.232.054-.357l1.179-3.839c.018-.018.018-.036.018-.071a.444.444 0 0 0-.143-.304L1.768 7.448c-.268-.143-.446-.393-.446-.696z"/></svg>