<svg xmlns="http://www.w3.org/2000/svg" width="16" height="16" viewBox="0 0 16 16"><path d="M9.018 7.179C11.125 8 12.5 8.858 12.5 11.036c0 1.321-.446 2.321-1.321 3.018-.786.625-1.929.946-3.321.946-1.75 0-3.446-.518-4.357-1.036l.482-2.929c1.054.625 2.679 1.107 3.661 1.107.804 0 1.232-.286 1.232-.804 0-.536-.446-.875-1.804-1.357-2.107-.768-3.411-1.679-3.411-3.804 0-1.179.429-2.143 1.232-2.821.786-.625 1.875-.982 3.196-.982 1.857 0 3.196.518 3.857.839l-.464 2.893c-.839-.411-2.036-.875-3.214-.875-.643 0-1 .25-1 .696 0 .518.625.839 1.75 1.25z"/></svg>