<svg xmlns="http://www.w3.org/2000/svg" width="16" height="16" viewBox="0 0 16 16"><path d="M14.482 8.554c.321.607 0 1.25-.179 1.536.232.5.089 1.161-.25 1.536.089.268.143.875-.125 1.304-.179.429-.571.857-1.625.857H6.946c-.393 0-.696-.196-.929-.339l-.054.089a.696.696 0 0 1-.696.696H1.696c-.321 0-.643-.304-.696-.643V7.965c0-.411.321-.75.696-.75h3.946c.125 0 .214 0 .321.054.089-.107.375-.446.893-1.179.393-.607.786-1.357.982-1.732 0-.357-.054-1.643-.054-1.643 0-.071 0-.25.161-.446s.393-.357.732-.464c.125-.036.214-.036.304-.036.518 0 .982.214 1.089.446 0 .054.696 1.304.75 2.339.036.089-.161 1.196-.25 1.768h3.036c.536 0 .929.268 1.143.696.232.5.089 1.161-.268 1.536zm-.928 2.285c.054-.143 0-.393-.411-.482l-.089-.054.036-.304h.054a.818.818 0 0 0 .643-.696c0-.286-.143-.429-.518-.571l.036-.321c.482-.089.75-.518.696-.839 0-.143-.071-.464-.5-.464H9.59l.054-.143c.089-.554.375-2.268.375-2.411-.054-.804-.518-1.732-.643-1.946-.143-.054-.25-.107-.393-.107a.733.733 0 0 0-.446.143c0 .268.036 1.446.036 1.75 0 .339-1.625 3.036-2.018 3.375-.214.143-.732.411-1.036.589v4.143h.339c.161 0 .339.089.482.179.214.143.375.25.554.25h5.464c.554 0 .857-.339.857-.696 0-.25-.018-.393-.464-.482l.107-.321c.411 0 .696-.321.696-.589zM2 8.214v5.018h3V8.214H2z"/></svg>