<svg xmlns="http://www.w3.org/2000/svg" width="16" height="16" viewBox="0 0 16 16"><path d="M9.036 3.929v-2.25c0-.161.054-.268.143-.321.036 0 .071 0 .089-.018.071 0 .161.036.25.107l3.643 3.071c.125.107.196.25.196.411 0 .143-.071.286-.196.411L9.518 8.394c-.268.232-.482.125-.482-.214V5.93H4.447v-2h4.589zM1.321 5.304v-.75c0-.339.286-.625.643-.625H3.16v2H1.964a.637.637 0 0 1-.643-.625zm1.322 5.732c0-.161.071-.286.196-.393l3.643-3.071c.268-.214.5-.107.5.232v2.25H11.5v2H6.982v2.268c-.018.161-.071.268-.161.321-.018.018-.054.018-.089.018a.428.428 0 0 1-.25-.107l-3.643-3.089a.543.543 0 0 1-.196-.429zm10.143-.982h1.25c.357 0 .643.286.643.625v.75a.637.637 0 0 1-.643.625h-1.25v-2z"/></svg>