<svg xmlns="http://www.w3.org/2000/svg" width="16" height="16" viewBox="0 0 16 16"><path d="M8 12.7V6.3c0-.2.1-.3.3-.3h.4c.2 0 .3.1.3.3v6.4c0 .2-.1.3-.3.3h-.4c-.2 0-.3-.1-.3-.3zM6 4V2.5c0-.2.1-.3.2-.5l.9-.8c.2-.1.4-.2.6-.2h1.7c.2 0 .4.1.5.2l.9.9c.1.1.2.3.2.5V4h3v1h-1v9c0 .6-.4 1-1 1H5c-.5 0-1-.4-1-1V5H3V4h3zm4 0V2.9c0-.2-.1-.4-.2-.5l-.2-.2c-.1-.1-.3-.2-.5-.2H7.9c-.2 0-.4.1-.6.2l-.1.1c-.1.1-.2.3-.2.5V4h3zM5 5v8.7c0 .1.2.3.3.3h6.4c.2 0 .3-.1.3-.3V5H5zm1 7.7V6.3c0-.2.1-.3.3-.3h.4c.2 0 .3.1.3.3v6.4c0 .2-.1.3-.3.3h-.4c-.2 0-.3-.1-.3-.3zm4 0V6.3c0-.2.1-.3.4-.3h.3c.2 0 .3.1.3.3v6.4c0 .2-.1.3-.3.3h-.3c-.3 0-.4-.1-.4-.3z"/></svg>