<svg width="16" height="16" viewBox="0 0 16 16" xmlns="http://www.w3.org/2000/svg"><path d="M16 3.05a6.713 6.713 0 0 1-1.886.512 3.277 3.277 0 0 0 1.438-1.822 6.447 6.447 0 0 1-2.077.799A3.281 3.281 0 0 0 7.8 4.777c0 .255.031.511.08.751a9.321 9.321 0 0 1-6.762-3.42A3.218 3.218 0 0 0 .67 3.753a3.29 3.29 0 0 0 1.455 2.733A3.14 3.14 0 0 1 .638 6.07v.048a3.29 3.29 0 0 0 2.638 3.213c-.272.08-.56.112-.863.112-.208 0-.416-.016-.624-.064a3.274 3.274 0 0 0 3.07 2.27A6.59 6.59 0 0 1 0 13.008a9.325 9.325 0 0 0 5.019 1.471c6.026 0 9.335-5.003 9.335-9.335 0-.144 0-.287-.016-.431A5.682 5.682 0 0 0 16 3.05z"/></svg>