<svg xmlns="http://www.w3.org/2000/svg" width="16" height="16" viewBox="0 0 16 16"><path d="M4.068 12.117c.292-.55.985-1.444 2.547-1.773l.739-.26-.338-.599C7.012 9.476 6.7 8.474 6.7 7.47c0-.337-.001-.846.181-1.222.122-.255.359-.547 1.119-.547.96 0 1.3.47 1.3 1.799a7.888 7.888 0 0 1-.274 1.968l-.359.616.854.26c1.586.413 2.211 1.258 2.45 1.737a5.678 5.678 0 0 1-7.903.036M8 2.3c3.143 0 5.7 2.557 5.7 5.7a5.662 5.662 0 0 1-.809 2.913c-.419-.576-1.139-1.265-2.364-1.719A9.03 9.03 0 0 0 10.7 7.5c0-2.645-1.469-3.2-2.7-3.2-1.437 0-2.088.73-2.382 1.342C5.3 6.306 5.3 7.035 5.3 7.5c0 .644.128 1.247.258 1.694-1.228.427-1.968 1.142-2.415 1.775A5.66 5.66 0 0 1 2.3 8c0-3.143 2.557-5.7 5.7-5.7M8 1a7 7 0 1 0 0 14A7 7 0 0 0 8 1"/></svg>