<svg xmlns="http://www.w3.org/2000/svg" width="16" height="16" viewBox="0 0 16 16"><path d="M14.018 2l-2.25 1.518A5.522 5.522 0 0 0 7 6.714L-.018 2h14.036zM4 6.018L-.018 3.214v5.804zm10.018-2.125v-.679l-.661.464zm-1.964 1.125c2.518 0 4.536 2.321 3.821 4.857-.304 1.518-1.5 2.732-2.911 3.036-2.929.714-5.554-1.911-4.839-4.857.196-.714.5-1.321 1-1.821a4.061 4.061 0 0 1 2.929-1.214zm-1.822 1.518l4.232 4.25a2.24 2.24 0 0 0 .5-1.821c0-1.714-1.304-3.036-3.018-3.036-.607 0-1.214.196-1.714.607zm-9.553 3.5H6.59a6.297 6.297 0 0 1-.089-1.018c0-.411.054-.839.143-1.232L5.001 6.715zm11.071 2.071c.804.107 1.518-.196 2.018-.607L9.536 7.25a3.07 3.07 0 0 0-.518 2.125c.214 1.411 1.321 2.625 2.732 2.732z"/></svg>