<svg fill="none" height="16" viewBox="0 0 16 16" width="16" xmlns="http://www.w3.org/2000/svg"><path clip-rule="evenodd" d="m8.66289 1.76154 1.94851 2.23846h2.3886c1.1046 0 2 .89543 2 2v7c0 1.1046-.8954 2-2 2h-10c-1.10457 0-2-.8954-2-2v-7c0-1.10457.89543-2 2-2h2.3886l1.94851-2.23846.66289-.76154zm-2.52002 2.89502 1.85713-2.13348 1.85713 2.13348.29897.34344h.4553 2.3886c.5523 0 1 .44771 1 1v7c0 .5523-.4477 1-1 1h-10c-.55228 0-1-.4477-1-1v-7c0-.55229.44772-1 1-1h2.3886.45532zm-.14287 2.09393v5.19001c-.00008.0427.01076.0847.03149.122.02074.0372.05067.0686.08696.0911.03629.0224.07772.0352.12036.0371.04263.0019.08504-.0071.12319-.0262l4.922-2.46101c.0666-.03317.1226-.08425.1617-.14749s.0599-.13614.0599-.21051-.0208-.14727-.0599-.21051-.0951-.11431-.1617-.14749l-4.922-2.461c-.03815-.01912-.08056-.02815-.12319-.02624-.04264.00191-.08407.0147-.12036.03716-.03629.02245-.06622.05382-.08696.09112-.02073.0373-.03157.07929-.03149.12196z" fill="#000" fill-rule="evenodd"/></svg>