<svg xmlns="http://www.w3.org/2000/svg" width="16" height="16" viewBox="0 0 16 16"><path d="M15 10.681l-3-2.302v-.738l3-2.313v5.353zm-4 1.312C11 12.548 10.548 13 9.993 13H2.007A1.008 1.008 0 0 1 1 11.993V4.007C1 3.452 1.452 3 2.007 3h7.986C10.548 3 11 3.452 11 4.007v7.986zm4.585-7.946A.744.744 0 0 0 15.327 4a.71.71 0 0 0-.476.18L12 6.379V4.007A2.013 2.013 0 0 0 9.993 2H2.007A2.013 2.013 0 0 0 0 4.007v7.986C0 13.097.903 14 2.007 14h7.986A2.013 2.013 0 0 0 12 11.993V9.64l2.851 2.187c.129.118.301.18.476.18a.743.743 0 0 0 .258-.046.619.619 0 0 0 .415-.569V4.615a.618.618 0 0 0-.415-.568z"/></svg> 
