<svg xmlns="http://www.w3.org/2000/svg" width="16" height="16"><path d="M8 12.75c-4.279 0-6.404-3.465-6.933-4.476a.59.59 0 0 1 0-.548C1.596 6.715 3.721 3.25 8 3.25s6.404 3.465 6.933 4.476a.59.59 0 0 1 0 .548C14.404 9.285 12.279 12.75 8 12.75zm.004-8.016C6.233 4.734 4.797 6.196 4.797 8s1.436 3.266 3.207 3.265c1.771 0 3.207-1.462 3.207-3.266.001-1.803-1.435-3.265-3.207-3.265zm0 5.344c-1.127 0-2.041-.93-2.041-2.078 0-1.148.914-2.078 2.041-2.078 1.127 0 2.041.93 2.041 2.078 0 1.148-.914 2.078-2.041 2.078z"/></svg>