<svg width="16" height="16" xmlns="http://www.w3.org/2000/svg"><path d="M5.76 1c.987 0 2.34 2.063 3.186 3.198.846 1.135 1.707 2.587 2.398 2.587a.474.474 0 0 0 .31-.116c.578-.529.113-1.805.916-2.579.417-.39.983-.617 1.58-.632h.253a.78.78 0 0 1 .313.133c.091.066.164.15.214.247a.634.634 0 0 1-.019.613 4.687 4.687 0 0 0-.67 1.89 4.572 4.572 0 0 0 .19 1.979c.326.932.346 1.93.058 2.872a4.971 4.971 0 0 1-1.679 2.428c-.844.835-2.015 1.331-3.257 1.38a4.555 4.555 0 0 1-1.646-.364 4.225 4.225 0 0 1-1.358-.926C4.293 11.634.4 9.422 1.444 8.403a.904.904 0 0 1 .3-.2.61.61 0 0 1 .286-.054c.466 0 .945.387 1.537.929.593.541 1.486 1.272 1.768 1.272.016.006.089 0 .106 0 .016 0 .098-.105.137-.14.24-.206-1.126-1.315-2.17-2.295C2.365 6.935.432 5.703 1.16 4.717a.813.813 0 0 1 .284-.184c.114-.051.267-.057.393-.063.577.108 1.597 1.085 2.5 1.924.902.838 1.846 2.12 2.226 2.12a.277.277 0 0 0 .141 0c.381-.44-1.145-1.874-2.414-3.01C3.021 4.37 1.304 2.943 2.15 2.157a.75.75 0 0 1 .243-.16.807.807 0 0 1 .293-.06c1 0 2.29 1.724 3.124 2.597.832.735 1.83 2.016 2.224 2.016.087.027.156-.036.182-.047.339-.31-.835-1.427-1.667-2.355C5.506 2.986 4.462 1.929 5.266 1.18a.639.639 0 0 1 .212-.135A.686.686 0 0 1 5.731 1h.029z"/></svg>