<svg xmlns="http://www.w3.org/2000/svg" width="16" height="16" viewBox="0 0 16 16"><path d="M1.607 12.143l-.268-.268c0-1.571 1.464-3.036 3.018-3.036.214 0 .518.089.893.268L9.107 5.25c-.179-.375-.268-.679-.268-.911 0-1.571 1.482-3.018 3.036-3.018l.196.196c.018.018.036.054.071.089l-.696.696c-.304.286-.446.5-.446.661v.429c0 .554 1.036 1.589 1.589 1.589h.429c.161 0 .375-.143.679-.446l.696-.696.179.179c.054.054.089.089.089.107 0 1.554-1.464 3.018-3.018 3.018-.268 0-.554-.071-.857-.232l-3.857 3.857c.161.304.232.589.232.893 0 1.536-1.518 3.018-3.036 3.018a.868.868 0 0 1-.179-.179l-.089-.089.696-.696c.304-.304.446-.518.446-.679v-.446c0-.589-1-1.589-1.589-1.589-.732 0-.768.107-1.107.446z"/></svg>