<svg xmlns="http://www.w3.org/2000/svg" width="16" height="16" viewBox="0 0 16 16"><path d="M9.414 8.00001L14.707 2.70701C15.098 2.31601 15.098 1.68401 14.707 1.29301C14.316 0.902006 13.684 0.902006 13.293 1.29301L8 6.58601L2.707 1.29301C2.316 0.902006 1.684 0.902006 1.293 1.29301C0.902 1.68401 0.902 2.31601 1.293 2.70701L6.586 8.00001L1.293 13.293C0.902 13.684 0.902 14.316 1.293 14.707C1.488 14.902 1.744 15 2 15C2.256 15 2.512 14.902 2.707 14.707L8 9.41401L13.293 14.707C13.488 14.902 13.744 15 14 15C14.256 15 14.512 14.902 14.707 14.707C15.098 14.316 15.098 13.684 14.707 13.293L9.414 8.00001Z"/></svg>